%TF.GenerationSoftware,KiCad,Pcbnew,5.1.10-88a1d61d58~88~ubuntu21.04.1*%
%TF.CreationDate,2021-07-07T15:16:44+02:00*%
%TF.ProjectId,USBaspDualZif,55534261-7370-4447-9561-6c5a69662e6b,V1.0*%
%TF.SameCoordinates,Original*%
%TF.FileFunction,Legend,Top*%
%TF.FilePolarity,Positive*%
%FSLAX46Y46*%
G04 Gerber Fmt 4.6, Leading zero omitted, Abs format (unit mm)*
G04 Created by KiCad (PCBNEW 5.1.10-88a1d61d58~88~ubuntu21.04.1) date 2021-07-07 15:16:44*
%MOMM*%
%LPD*%
G01*
G04 APERTURE LIST*
%ADD10C,0.150000*%
%TA.AperFunction,Profile*%
%ADD11C,0.200000*%
%TD*%
%ADD12C,0.120000*%
G04 APERTURE END LIST*
D10*
X78510380Y-150603904D02*
X79319904Y-150603904D01*
X79415142Y-150556285D01*
X79462761Y-150508666D01*
X79510380Y-150413428D01*
X79510380Y-150222952D01*
X79462761Y-150127714D01*
X79415142Y-150080095D01*
X79319904Y-150032476D01*
X78510380Y-150032476D01*
X79462761Y-149603904D02*
X79510380Y-149461047D01*
X79510380Y-149222952D01*
X79462761Y-149127714D01*
X79415142Y-149080095D01*
X79319904Y-149032476D01*
X79224666Y-149032476D01*
X79129428Y-149080095D01*
X79081809Y-149127714D01*
X79034190Y-149222952D01*
X78986571Y-149413428D01*
X78938952Y-149508666D01*
X78891333Y-149556285D01*
X78796095Y-149603904D01*
X78700857Y-149603904D01*
X78605619Y-149556285D01*
X78558000Y-149508666D01*
X78510380Y-149413428D01*
X78510380Y-149175333D01*
X78558000Y-149032476D01*
X78986571Y-148270571D02*
X79034190Y-148127714D01*
X79081809Y-148080095D01*
X79177047Y-148032476D01*
X79319904Y-148032476D01*
X79415142Y-148080095D01*
X79462761Y-148127714D01*
X79510380Y-148222952D01*
X79510380Y-148603904D01*
X78510380Y-148603904D01*
X78510380Y-148270571D01*
X78558000Y-148175333D01*
X78605619Y-148127714D01*
X78700857Y-148080095D01*
X78796095Y-148080095D01*
X78891333Y-148127714D01*
X78938952Y-148175333D01*
X78986571Y-148270571D01*
X78986571Y-148603904D01*
X79510380Y-147175333D02*
X78986571Y-147175333D01*
X78891333Y-147222952D01*
X78843714Y-147318190D01*
X78843714Y-147508666D01*
X78891333Y-147603904D01*
X79462761Y-147175333D02*
X79510380Y-147270571D01*
X79510380Y-147508666D01*
X79462761Y-147603904D01*
X79367523Y-147651523D01*
X79272285Y-147651523D01*
X79177047Y-147603904D01*
X79129428Y-147508666D01*
X79129428Y-147270571D01*
X79081809Y-147175333D01*
X79462761Y-146746761D02*
X79510380Y-146651523D01*
X79510380Y-146461047D01*
X79462761Y-146365809D01*
X79367523Y-146318190D01*
X79319904Y-146318190D01*
X79224666Y-146365809D01*
X79177047Y-146461047D01*
X79177047Y-146603904D01*
X79129428Y-146699142D01*
X79034190Y-146746761D01*
X78986571Y-146746761D01*
X78891333Y-146699142D01*
X78843714Y-146603904D01*
X78843714Y-146461047D01*
X78891333Y-146365809D01*
X78843714Y-145889619D02*
X79843714Y-145889619D01*
X78891333Y-145889619D02*
X78843714Y-145794380D01*
X78843714Y-145603904D01*
X78891333Y-145508666D01*
X78938952Y-145461047D01*
X79034190Y-145413428D01*
X79319904Y-145413428D01*
X79415142Y-145461047D01*
X79462761Y-145508666D01*
X79510380Y-145603904D01*
X79510380Y-145794380D01*
X79462761Y-145889619D01*
X79510380Y-144984857D02*
X78510380Y-144984857D01*
X78510380Y-144746761D01*
X78558000Y-144603904D01*
X78653238Y-144508666D01*
X78748476Y-144461047D01*
X78938952Y-144413428D01*
X79081809Y-144413428D01*
X79272285Y-144461047D01*
X79367523Y-144508666D01*
X79462761Y-144603904D01*
X79510380Y-144746761D01*
X79510380Y-144984857D01*
X78843714Y-143556285D02*
X79510380Y-143556285D01*
X78843714Y-143984857D02*
X79367523Y-143984857D01*
X79462761Y-143937238D01*
X79510380Y-143842000D01*
X79510380Y-143699142D01*
X79462761Y-143603904D01*
X79415142Y-143556285D01*
X79510380Y-142651523D02*
X78986571Y-142651523D01*
X78891333Y-142699142D01*
X78843714Y-142794380D01*
X78843714Y-142984857D01*
X78891333Y-143080095D01*
X79462761Y-142651523D02*
X79510380Y-142746761D01*
X79510380Y-142984857D01*
X79462761Y-143080095D01*
X79367523Y-143127714D01*
X79272285Y-143127714D01*
X79177047Y-143080095D01*
X79129428Y-142984857D01*
X79129428Y-142746761D01*
X79081809Y-142651523D01*
X79510380Y-142032476D02*
X79462761Y-142127714D01*
X79367523Y-142175333D01*
X78510380Y-142175333D01*
X78510380Y-141746761D02*
X78510380Y-141080095D01*
X79510380Y-141746761D01*
X79510380Y-141080095D01*
X79510380Y-140699142D02*
X78843714Y-140699142D01*
X78510380Y-140699142D02*
X78558000Y-140746761D01*
X78605619Y-140699142D01*
X78558000Y-140651523D01*
X78510380Y-140699142D01*
X78605619Y-140699142D01*
X78843714Y-140365809D02*
X78843714Y-139984857D01*
X79510380Y-140222952D02*
X78653238Y-140222952D01*
X78558000Y-140175333D01*
X78510380Y-140080095D01*
X78510380Y-139984857D01*
X78843714Y-138889619D02*
X79843714Y-138889619D01*
X78891333Y-138889619D02*
X78843714Y-138794380D01*
X78843714Y-138603904D01*
X78891333Y-138508666D01*
X78938952Y-138461047D01*
X79034190Y-138413428D01*
X79319904Y-138413428D01*
X79415142Y-138461047D01*
X79462761Y-138508666D01*
X79510380Y-138603904D01*
X79510380Y-138794380D01*
X79462761Y-138889619D01*
X79510380Y-137984857D02*
X78843714Y-137984857D01*
X79034190Y-137984857D02*
X78938952Y-137937238D01*
X78891333Y-137889619D01*
X78843714Y-137794380D01*
X78843714Y-137699142D01*
X79510380Y-137222952D02*
X79462761Y-137318190D01*
X79415142Y-137365809D01*
X79319904Y-137413428D01*
X79034190Y-137413428D01*
X78938952Y-137365809D01*
X78891333Y-137318190D01*
X78843714Y-137222952D01*
X78843714Y-137080095D01*
X78891333Y-136984857D01*
X78938952Y-136937238D01*
X79034190Y-136889619D01*
X79319904Y-136889619D01*
X79415142Y-136937238D01*
X79462761Y-136984857D01*
X79510380Y-137080095D01*
X79510380Y-137222952D01*
X78843714Y-136032476D02*
X79653238Y-136032476D01*
X79748476Y-136080095D01*
X79796095Y-136127714D01*
X79843714Y-136222952D01*
X79843714Y-136365809D01*
X79796095Y-136461047D01*
X79462761Y-136032476D02*
X79510380Y-136127714D01*
X79510380Y-136318190D01*
X79462761Y-136413428D01*
X79415142Y-136461047D01*
X79319904Y-136508666D01*
X79034190Y-136508666D01*
X78938952Y-136461047D01*
X78891333Y-136413428D01*
X78843714Y-136318190D01*
X78843714Y-136127714D01*
X78891333Y-136032476D01*
X79510380Y-135556285D02*
X78843714Y-135556285D01*
X79034190Y-135556285D02*
X78938952Y-135508666D01*
X78891333Y-135461047D01*
X78843714Y-135365809D01*
X78843714Y-135270571D01*
X79510380Y-134508666D02*
X78986571Y-134508666D01*
X78891333Y-134556285D01*
X78843714Y-134651523D01*
X78843714Y-134842000D01*
X78891333Y-134937238D01*
X79462761Y-134508666D02*
X79510380Y-134603904D01*
X79510380Y-134842000D01*
X79462761Y-134937238D01*
X79367523Y-134984857D01*
X79272285Y-134984857D01*
X79177047Y-134937238D01*
X79129428Y-134842000D01*
X79129428Y-134603904D01*
X79081809Y-134508666D01*
X79510380Y-134032476D02*
X78843714Y-134032476D01*
X78938952Y-134032476D02*
X78891333Y-133984857D01*
X78843714Y-133889619D01*
X78843714Y-133746761D01*
X78891333Y-133651523D01*
X78986571Y-133603904D01*
X79510380Y-133603904D01*
X78986571Y-133603904D02*
X78891333Y-133556285D01*
X78843714Y-133461047D01*
X78843714Y-133318190D01*
X78891333Y-133222952D01*
X78986571Y-133175333D01*
X79510380Y-133175333D01*
X79510380Y-132699142D02*
X78843714Y-132699142D01*
X78938952Y-132699142D02*
X78891333Y-132651523D01*
X78843714Y-132556285D01*
X78843714Y-132413428D01*
X78891333Y-132318190D01*
X78986571Y-132270571D01*
X79510380Y-132270571D01*
X78986571Y-132270571D02*
X78891333Y-132222952D01*
X78843714Y-132127714D01*
X78843714Y-131984857D01*
X78891333Y-131889619D01*
X78986571Y-131842000D01*
X79510380Y-131842000D01*
X79462761Y-130984857D02*
X79510380Y-131080095D01*
X79510380Y-131270571D01*
X79462761Y-131365809D01*
X79367523Y-131413428D01*
X78986571Y-131413428D01*
X78891333Y-131365809D01*
X78843714Y-131270571D01*
X78843714Y-131080095D01*
X78891333Y-130984857D01*
X78986571Y-130937238D01*
X79081809Y-130937238D01*
X79177047Y-131413428D01*
X79510380Y-130508666D02*
X78843714Y-130508666D01*
X79034190Y-130508666D02*
X78938952Y-130461047D01*
X78891333Y-130413428D01*
X78843714Y-130318190D01*
X78843714Y-130222952D01*
X80493714Y-150603904D02*
X81493714Y-150603904D01*
X80541333Y-150603904D02*
X80493714Y-150508666D01*
X80493714Y-150318190D01*
X80541333Y-150222952D01*
X80588952Y-150175333D01*
X80684190Y-150127714D01*
X80969904Y-150127714D01*
X81065142Y-150175333D01*
X81112761Y-150222952D01*
X81160380Y-150318190D01*
X81160380Y-150508666D01*
X81112761Y-150603904D01*
X81160380Y-149699142D02*
X80493714Y-149699142D01*
X80160380Y-149699142D02*
X80208000Y-149746761D01*
X80255619Y-149699142D01*
X80208000Y-149651523D01*
X80160380Y-149699142D01*
X80255619Y-149699142D01*
X81160380Y-149222952D02*
X80493714Y-149222952D01*
X80160380Y-149222952D02*
X80208000Y-149270571D01*
X80255619Y-149222952D01*
X80208000Y-149175333D01*
X80160380Y-149222952D01*
X80255619Y-149222952D01*
X80493714Y-148889619D02*
X80493714Y-148508666D01*
X80160380Y-148746761D02*
X81017523Y-148746761D01*
X81112761Y-148699142D01*
X81160380Y-148603904D01*
X81160380Y-148508666D01*
X80160380Y-148270571D02*
X80160380Y-147603904D01*
X81160380Y-148032476D01*
X81160380Y-147175333D02*
X81160380Y-146984857D01*
X81112761Y-146889619D01*
X81065142Y-146842000D01*
X80922285Y-146746761D01*
X80731809Y-146699142D01*
X80350857Y-146699142D01*
X80255619Y-146746761D01*
X80208000Y-146794380D01*
X80160380Y-146889619D01*
X80160380Y-147080095D01*
X80208000Y-147175333D01*
X80255619Y-147222952D01*
X80350857Y-147270571D01*
X80588952Y-147270571D01*
X80684190Y-147222952D01*
X80731809Y-147175333D01*
X80779428Y-147080095D01*
X80779428Y-146889619D01*
X80731809Y-146794380D01*
X80684190Y-146746761D01*
X80588952Y-146699142D01*
X80255619Y-145556285D02*
X80208000Y-145508666D01*
X80160380Y-145413428D01*
X80160380Y-145175333D01*
X80208000Y-145080095D01*
X80255619Y-145032476D01*
X80350857Y-144984857D01*
X80446095Y-144984857D01*
X80588952Y-145032476D01*
X81160380Y-145603904D01*
X81160380Y-144984857D01*
X80160380Y-144365809D02*
X80160380Y-144270571D01*
X80208000Y-144175333D01*
X80255619Y-144127714D01*
X80350857Y-144080095D01*
X80541333Y-144032476D01*
X80779428Y-144032476D01*
X80969904Y-144080095D01*
X81065142Y-144127714D01*
X81112761Y-144175333D01*
X81160380Y-144270571D01*
X81160380Y-144365809D01*
X81112761Y-144461047D01*
X81065142Y-144508666D01*
X80969904Y-144556285D01*
X80779428Y-144603904D01*
X80541333Y-144603904D01*
X80350857Y-144556285D01*
X80255619Y-144508666D01*
X80208000Y-144461047D01*
X80160380Y-144365809D01*
X80255619Y-143651523D02*
X80208000Y-143603904D01*
X80160380Y-143508666D01*
X80160380Y-143270571D01*
X80208000Y-143175333D01*
X80255619Y-143127714D01*
X80350857Y-143080095D01*
X80446095Y-143080095D01*
X80588952Y-143127714D01*
X81160380Y-143699142D01*
X81160380Y-143080095D01*
X81160380Y-142127714D02*
X81160380Y-142699142D01*
X81160380Y-142413428D02*
X80160380Y-142413428D01*
X80303238Y-142508666D01*
X80398476Y-142603904D01*
X80446095Y-142699142D01*
X80493714Y-140508666D02*
X81160380Y-140508666D01*
X80112761Y-140746761D02*
X80827047Y-140984857D01*
X80827047Y-140365809D01*
X80255619Y-140032476D02*
X80208000Y-139984857D01*
X80160380Y-139889619D01*
X80160380Y-139651523D01*
X80208000Y-139556285D01*
X80255619Y-139508666D01*
X80350857Y-139461047D01*
X80446095Y-139461047D01*
X80588952Y-139508666D01*
X81160380Y-140080095D01*
X81160380Y-139461047D01*
X81160380Y-139032476D02*
X80160380Y-139032476D01*
X80779428Y-138937238D02*
X81160380Y-138651523D01*
X80493714Y-138651523D02*
X80874666Y-139032476D01*
X81112761Y-137842000D02*
X81160380Y-137937238D01*
X81160380Y-138127714D01*
X81112761Y-138222952D01*
X81017523Y-138270571D01*
X80636571Y-138270571D01*
X80541333Y-138222952D01*
X80493714Y-138127714D01*
X80493714Y-137937238D01*
X80541333Y-137842000D01*
X80636571Y-137794380D01*
X80731809Y-137794380D01*
X80827047Y-138270571D01*
X81112761Y-136984857D02*
X81160380Y-137080095D01*
X81160380Y-137270571D01*
X81112761Y-137365809D01*
X81017523Y-137413428D01*
X80636571Y-137413428D01*
X80541333Y-137365809D01*
X80493714Y-137270571D01*
X80493714Y-137080095D01*
X80541333Y-136984857D01*
X80636571Y-136937238D01*
X80731809Y-136937238D01*
X80827047Y-137413428D01*
X81160380Y-136508666D02*
X80160380Y-136508666D01*
X80541333Y-136508666D02*
X80493714Y-136413428D01*
X80493714Y-136222952D01*
X80541333Y-136127714D01*
X80588952Y-136080095D01*
X80684190Y-136032476D01*
X80969904Y-136032476D01*
X81065142Y-136080095D01*
X81112761Y-136127714D01*
X81160380Y-136222952D01*
X81160380Y-136413428D01*
X81112761Y-136508666D01*
X81112761Y-135651523D02*
X81160380Y-135556285D01*
X81160380Y-135365809D01*
X81112761Y-135270571D01*
X81017523Y-135222952D01*
X80969904Y-135222952D01*
X80874666Y-135270571D01*
X80827047Y-135365809D01*
X80827047Y-135508666D01*
X80779428Y-135603904D01*
X80684190Y-135651523D01*
X80636571Y-135651523D01*
X80541333Y-135603904D01*
X80493714Y-135508666D01*
X80493714Y-135365809D01*
X80541333Y-135270571D01*
X81065142Y-134794380D02*
X81112761Y-134746761D01*
X81160380Y-134794380D01*
X81112761Y-134842000D01*
X81065142Y-134794380D01*
X81160380Y-134794380D01*
X81112761Y-133937238D02*
X81160380Y-134032476D01*
X81160380Y-134222952D01*
X81112761Y-134318190D01*
X81017523Y-134365809D01*
X80636571Y-134365809D01*
X80541333Y-134318190D01*
X80493714Y-134222952D01*
X80493714Y-134032476D01*
X80541333Y-133937238D01*
X80636571Y-133889619D01*
X80731809Y-133889619D01*
X80827047Y-134365809D01*
X80493714Y-133032476D02*
X81160380Y-133032476D01*
X80493714Y-133461047D02*
X81017523Y-133461047D01*
X81112761Y-133413428D01*
X81160380Y-133318190D01*
X81160380Y-133175333D01*
X81112761Y-133080095D01*
X81065142Y-133032476D01*
X90400738Y-101639666D02*
X90876928Y-101639666D01*
X90305500Y-101925380D02*
X90638833Y-100925380D01*
X90972166Y-101925380D01*
X91162642Y-100925380D02*
X91734071Y-100925380D01*
X91448357Y-101925380D02*
X91448357Y-100925380D01*
X92067404Y-101925380D02*
X92067404Y-100925380D01*
X92400738Y-101639666D01*
X92734071Y-100925380D01*
X92734071Y-101925380D01*
X93591214Y-101877761D02*
X93495976Y-101925380D01*
X93305500Y-101925380D01*
X93210261Y-101877761D01*
X93162642Y-101782523D01*
X93162642Y-101401571D01*
X93210261Y-101306333D01*
X93305500Y-101258714D01*
X93495976Y-101258714D01*
X93591214Y-101306333D01*
X93638833Y-101401571D01*
X93638833Y-101496809D01*
X93162642Y-101592047D01*
X94495976Y-101258714D02*
X94495976Y-102068238D01*
X94448357Y-102163476D01*
X94400738Y-102211095D01*
X94305500Y-102258714D01*
X94162642Y-102258714D01*
X94067404Y-102211095D01*
X94495976Y-101877761D02*
X94400738Y-101925380D01*
X94210261Y-101925380D01*
X94115023Y-101877761D01*
X94067404Y-101830142D01*
X94019785Y-101734904D01*
X94019785Y-101449190D01*
X94067404Y-101353952D01*
X94115023Y-101306333D01*
X94210261Y-101258714D01*
X94400738Y-101258714D01*
X94495976Y-101306333D01*
X95400738Y-101925380D02*
X95400738Y-101401571D01*
X95353119Y-101306333D01*
X95257880Y-101258714D01*
X95067404Y-101258714D01*
X94972166Y-101306333D01*
X95400738Y-101877761D02*
X95305500Y-101925380D01*
X95067404Y-101925380D01*
X94972166Y-101877761D01*
X94924547Y-101782523D01*
X94924547Y-101687285D01*
X94972166Y-101592047D01*
X95067404Y-101544428D01*
X95305500Y-101544428D01*
X95400738Y-101496809D01*
X95781690Y-100925380D02*
X96400738Y-100925380D01*
X96067404Y-101306333D01*
X96210261Y-101306333D01*
X96305500Y-101353952D01*
X96353119Y-101401571D01*
X96400738Y-101496809D01*
X96400738Y-101734904D01*
X96353119Y-101830142D01*
X96305500Y-101877761D01*
X96210261Y-101925380D01*
X95924547Y-101925380D01*
X95829309Y-101877761D01*
X95781690Y-101830142D01*
X96781690Y-101020619D02*
X96829309Y-100973000D01*
X96924547Y-100925380D01*
X97162642Y-100925380D01*
X97257880Y-100973000D01*
X97305500Y-101020619D01*
X97353119Y-101115857D01*
X97353119Y-101211095D01*
X97305500Y-101353952D01*
X96734071Y-101925380D01*
X97353119Y-101925380D01*
X97924547Y-101353952D02*
X97829309Y-101306333D01*
X97781690Y-101258714D01*
X97734071Y-101163476D01*
X97734071Y-101115857D01*
X97781690Y-101020619D01*
X97829309Y-100973000D01*
X97924547Y-100925380D01*
X98115023Y-100925380D01*
X98210261Y-100973000D01*
X98257880Y-101020619D01*
X98305500Y-101115857D01*
X98305500Y-101163476D01*
X98257880Y-101258714D01*
X98210261Y-101306333D01*
X98115023Y-101353952D01*
X97924547Y-101353952D01*
X97829309Y-101401571D01*
X97781690Y-101449190D01*
X97734071Y-101544428D01*
X97734071Y-101734904D01*
X97781690Y-101830142D01*
X97829309Y-101877761D01*
X97924547Y-101925380D01*
X98115023Y-101925380D01*
X98210261Y-101877761D01*
X98257880Y-101830142D01*
X98305500Y-101734904D01*
X98305500Y-101544428D01*
X98257880Y-101449190D01*
X98210261Y-101401571D01*
X98115023Y-101353952D01*
X98734071Y-101258714D02*
X98734071Y-102258714D01*
X98734071Y-101306333D02*
X98829309Y-101258714D01*
X99019785Y-101258714D01*
X99115023Y-101306333D01*
X99162642Y-101353952D01*
X99210261Y-101449190D01*
X99210261Y-101734904D01*
X99162642Y-101830142D01*
X99115023Y-101877761D01*
X99019785Y-101925380D01*
X98829309Y-101925380D01*
X98734071Y-101877761D01*
X61246238Y-86399666D02*
X61722428Y-86399666D01*
X61151000Y-86685380D02*
X61484333Y-85685380D01*
X61817666Y-86685380D01*
X62008142Y-85685380D02*
X62579571Y-85685380D01*
X62293857Y-86685380D02*
X62293857Y-85685380D01*
X62912904Y-86685380D02*
X62912904Y-85685380D01*
X63246238Y-86399666D01*
X63579571Y-85685380D01*
X63579571Y-86685380D01*
X64436714Y-86637761D02*
X64341476Y-86685380D01*
X64151000Y-86685380D01*
X64055761Y-86637761D01*
X64008142Y-86542523D01*
X64008142Y-86161571D01*
X64055761Y-86066333D01*
X64151000Y-86018714D01*
X64341476Y-86018714D01*
X64436714Y-86066333D01*
X64484333Y-86161571D01*
X64484333Y-86256809D01*
X64008142Y-86352047D01*
X65341476Y-86018714D02*
X65341476Y-86828238D01*
X65293857Y-86923476D01*
X65246238Y-86971095D01*
X65151000Y-87018714D01*
X65008142Y-87018714D01*
X64912904Y-86971095D01*
X65341476Y-86637761D02*
X65246238Y-86685380D01*
X65055761Y-86685380D01*
X64960523Y-86637761D01*
X64912904Y-86590142D01*
X64865285Y-86494904D01*
X64865285Y-86209190D01*
X64912904Y-86113952D01*
X64960523Y-86066333D01*
X65055761Y-86018714D01*
X65246238Y-86018714D01*
X65341476Y-86066333D01*
X66246238Y-86685380D02*
X66246238Y-86161571D01*
X66198619Y-86066333D01*
X66103380Y-86018714D01*
X65912904Y-86018714D01*
X65817666Y-86066333D01*
X66246238Y-86637761D02*
X66151000Y-86685380D01*
X65912904Y-86685380D01*
X65817666Y-86637761D01*
X65770047Y-86542523D01*
X65770047Y-86447285D01*
X65817666Y-86352047D01*
X65912904Y-86304428D01*
X66151000Y-86304428D01*
X66246238Y-86256809D01*
X66627190Y-85685380D02*
X67246238Y-85685380D01*
X66912904Y-86066333D01*
X67055761Y-86066333D01*
X67151000Y-86113952D01*
X67198619Y-86161571D01*
X67246238Y-86256809D01*
X67246238Y-86494904D01*
X67198619Y-86590142D01*
X67151000Y-86637761D01*
X67055761Y-86685380D01*
X66770047Y-86685380D01*
X66674809Y-86637761D01*
X66627190Y-86590142D01*
X67627190Y-85780619D02*
X67674809Y-85733000D01*
X67770047Y-85685380D01*
X68008142Y-85685380D01*
X68103380Y-85733000D01*
X68151000Y-85780619D01*
X68198619Y-85875857D01*
X68198619Y-85971095D01*
X68151000Y-86113952D01*
X67579571Y-86685380D01*
X68198619Y-86685380D01*
X68579571Y-86399666D02*
X69055761Y-86399666D01*
X68484333Y-86685380D02*
X68817666Y-85685380D01*
X69151000Y-86685380D01*
X101733404Y-78112690D02*
X101733404Y-77655547D01*
X102533404Y-77884119D02*
X101733404Y-77884119D01*
X102304833Y-77426976D02*
X102304833Y-77046023D01*
X102533404Y-77503166D02*
X101733404Y-77236500D01*
X102533404Y-76969833D01*
X102533404Y-76246023D02*
X102152452Y-76512690D01*
X102533404Y-76703166D02*
X101733404Y-76703166D01*
X101733404Y-76398404D01*
X101771500Y-76322214D01*
X101809595Y-76284119D01*
X101885785Y-76246023D01*
X102000071Y-76246023D01*
X102076261Y-76284119D01*
X102114357Y-76322214D01*
X102152452Y-76398404D01*
X102152452Y-76703166D01*
X101771500Y-75484119D02*
X101733404Y-75560309D01*
X101733404Y-75674595D01*
X101771500Y-75788880D01*
X101847690Y-75865071D01*
X101923880Y-75903166D01*
X102076261Y-75941261D01*
X102190547Y-75941261D01*
X102342928Y-75903166D01*
X102419119Y-75865071D01*
X102495309Y-75788880D01*
X102533404Y-75674595D01*
X102533404Y-75598404D01*
X102495309Y-75484119D01*
X102457214Y-75446023D01*
X102190547Y-75446023D01*
X102190547Y-75598404D01*
X102114357Y-75103166D02*
X102114357Y-74836500D01*
X102533404Y-74722214D02*
X102533404Y-75103166D01*
X101733404Y-75103166D01*
X101733404Y-74722214D01*
X101733404Y-74493642D02*
X101733404Y-74036500D01*
X102533404Y-74265071D02*
X101733404Y-74265071D01*
X102533404Y-73160309D02*
X101733404Y-73160309D01*
X101733404Y-72855547D01*
X101771500Y-72779357D01*
X101809595Y-72741261D01*
X101885785Y-72703166D01*
X102000071Y-72703166D01*
X102076261Y-72741261D01*
X102114357Y-72779357D01*
X102152452Y-72855547D01*
X102152452Y-73160309D01*
X101733404Y-72436500D02*
X102533404Y-72246023D01*
X101961976Y-72093642D01*
X102533404Y-71941261D01*
X101733404Y-71750785D01*
X102533404Y-70988880D02*
X102152452Y-71255547D01*
X102533404Y-71446023D02*
X101733404Y-71446023D01*
X101733404Y-71141261D01*
X101771500Y-71065071D01*
X101809595Y-71026976D01*
X101885785Y-70988880D01*
X102000071Y-70988880D01*
X102076261Y-71026976D01*
X102114357Y-71065071D01*
X102152452Y-71141261D01*
X102152452Y-71446023D01*
X99917209Y-76817452D02*
X99955304Y-76703166D01*
X99955304Y-76512690D01*
X99917209Y-76436500D01*
X99879114Y-76398404D01*
X99802923Y-76360309D01*
X99726733Y-76360309D01*
X99650542Y-76398404D01*
X99612447Y-76436500D01*
X99574352Y-76512690D01*
X99536257Y-76665071D01*
X99498161Y-76741261D01*
X99460066Y-76779357D01*
X99383876Y-76817452D01*
X99307685Y-76817452D01*
X99231495Y-76779357D01*
X99193400Y-76741261D01*
X99155304Y-76665071D01*
X99155304Y-76474595D01*
X99193400Y-76360309D01*
X99955304Y-75636500D02*
X99955304Y-76017452D01*
X99155304Y-76017452D01*
X99155304Y-75217452D02*
X99155304Y-75065071D01*
X99193400Y-74988880D01*
X99269590Y-74912690D01*
X99421971Y-74874595D01*
X99688638Y-74874595D01*
X99841019Y-74912690D01*
X99917209Y-74988880D01*
X99955304Y-75065071D01*
X99955304Y-75217452D01*
X99917209Y-75293642D01*
X99841019Y-75369833D01*
X99688638Y-75407928D01*
X99421971Y-75407928D01*
X99269590Y-75369833D01*
X99193400Y-75293642D01*
X99155304Y-75217452D01*
X99155304Y-74607928D02*
X99955304Y-74417452D01*
X99383876Y-74265071D01*
X99955304Y-74112690D01*
X99155304Y-73922214D01*
X99917209Y-73046023D02*
X99955304Y-72931738D01*
X99955304Y-72741261D01*
X99917209Y-72665071D01*
X99879114Y-72626976D01*
X99802923Y-72588880D01*
X99726733Y-72588880D01*
X99650542Y-72626976D01*
X99612447Y-72665071D01*
X99574352Y-72741261D01*
X99536257Y-72893642D01*
X99498161Y-72969833D01*
X99460066Y-73007928D01*
X99383876Y-73046023D01*
X99307685Y-73046023D01*
X99231495Y-73007928D01*
X99193400Y-72969833D01*
X99155304Y-72893642D01*
X99155304Y-72703166D01*
X99193400Y-72588880D01*
X99879114Y-71788880D02*
X99917209Y-71826976D01*
X99955304Y-71941261D01*
X99955304Y-72017452D01*
X99917209Y-72131738D01*
X99841019Y-72207928D01*
X99764828Y-72246023D01*
X99612447Y-72284119D01*
X99498161Y-72284119D01*
X99345780Y-72246023D01*
X99269590Y-72207928D01*
X99193400Y-72131738D01*
X99155304Y-72017452D01*
X99155304Y-71941261D01*
X99193400Y-71826976D01*
X99231495Y-71788880D01*
X99955304Y-71446023D02*
X99155304Y-71446023D01*
X99955304Y-70988880D02*
X99498161Y-71331738D01*
X99155304Y-70988880D02*
X99612447Y-71446023D01*
X97351809Y-77350785D02*
X97389904Y-77236500D01*
X97389904Y-77046023D01*
X97351809Y-76969833D01*
X97313714Y-76931738D01*
X97237523Y-76893642D01*
X97161333Y-76893642D01*
X97085142Y-76931738D01*
X97047047Y-76969833D01*
X97008952Y-77046023D01*
X96970857Y-77198404D01*
X96932761Y-77274595D01*
X96894666Y-77312690D01*
X96818476Y-77350785D01*
X96742285Y-77350785D01*
X96666095Y-77312690D01*
X96628000Y-77274595D01*
X96589904Y-77198404D01*
X96589904Y-77007928D01*
X96628000Y-76893642D01*
X96970857Y-76550785D02*
X96970857Y-76284119D01*
X97389904Y-76169833D02*
X97389904Y-76550785D01*
X96589904Y-76550785D01*
X96589904Y-76169833D01*
X97389904Y-75446023D02*
X97389904Y-75826976D01*
X96589904Y-75826976D01*
X96970857Y-74912690D02*
X96970857Y-75179357D01*
X97389904Y-75179357D02*
X96589904Y-75179357D01*
X96589904Y-74798404D01*
X97389904Y-73884119D02*
X96589904Y-73884119D01*
X96589904Y-73579357D01*
X96628000Y-73503166D01*
X96666095Y-73465071D01*
X96742285Y-73426976D01*
X96856571Y-73426976D01*
X96932761Y-73465071D01*
X96970857Y-73503166D01*
X97008952Y-73579357D01*
X97008952Y-73884119D01*
X97389904Y-72626976D02*
X97008952Y-72893642D01*
X97389904Y-73084119D02*
X96589904Y-73084119D01*
X96589904Y-72779357D01*
X96628000Y-72703166D01*
X96666095Y-72665071D01*
X96742285Y-72626976D01*
X96856571Y-72626976D01*
X96932761Y-72665071D01*
X96970857Y-72703166D01*
X97008952Y-72779357D01*
X97008952Y-73084119D01*
X96589904Y-72131738D02*
X96589904Y-71979357D01*
X96628000Y-71903166D01*
X96704190Y-71826976D01*
X96856571Y-71788880D01*
X97123238Y-71788880D01*
X97275619Y-71826976D01*
X97351809Y-71903166D01*
X97389904Y-71979357D01*
X97389904Y-72131738D01*
X97351809Y-72207928D01*
X97275619Y-72284119D01*
X97123238Y-72322214D01*
X96856571Y-72322214D01*
X96704190Y-72284119D01*
X96628000Y-72207928D01*
X96589904Y-72131738D01*
X96628000Y-71026976D02*
X96589904Y-71103166D01*
X96589904Y-71217452D01*
X96628000Y-71331738D01*
X96704190Y-71407928D01*
X96780380Y-71446023D01*
X96932761Y-71484119D01*
X97047047Y-71484119D01*
X97199428Y-71446023D01*
X97275619Y-71407928D01*
X97351809Y-71331738D01*
X97389904Y-71217452D01*
X97389904Y-71141261D01*
X97351809Y-71026976D01*
X97313714Y-70988880D01*
X97047047Y-70988880D01*
X97047047Y-71141261D01*
D11*
X48821500Y-58418500D02*
G75*
G03*
X46821500Y-60418500I0J-2000000D01*
G01*
X46821500Y-152917500D02*
G75*
G03*
X48821500Y-154917500I2000000J0D01*
G01*
X110823500Y-154916000D02*
G75*
G03*
X112823500Y-152916000I0J2000000D01*
G01*
X112823500Y-60420000D02*
G75*
G03*
X110823500Y-58420000I-2000000J0D01*
G01*
X46821500Y-152917500D02*
X46821500Y-60418500D01*
X110823500Y-154916000D02*
X48821500Y-154917500D01*
X112823500Y-60420000D02*
X112823500Y-152916000D01*
X48821500Y-58418500D02*
X110823500Y-58420000D01*
D10*
X79819500Y-60833000D02*
X79819500Y-62103000D01*
X84294500Y-58323000D02*
X84299500Y-59083000D01*
X84294500Y-58323000D02*
X75344500Y-58323000D01*
X75339500Y-59083000D02*
X75344500Y-58323000D01*
X84294500Y-67556500D02*
X75344500Y-67556500D01*
X84444500Y-60833000D02*
X75194500Y-60833000D01*
D12*
X106860100Y-118670800D02*
X106860100Y-125070800D01*
X111910100Y-118670800D02*
X111910100Y-125070800D01*
X106860100Y-125070800D02*
G75*
G03*
X111910100Y-125070800I2525000J0D01*
G01*
X106860100Y-118670800D02*
G75*
G02*
X111910100Y-118670800I2525000J0D01*
G01*
X77358000Y-111063500D02*
X77358000Y-117463500D01*
X82408000Y-111063500D02*
X82408000Y-117463500D01*
X77358000Y-117463500D02*
G75*
G03*
X82408000Y-117463500I2525000J0D01*
G01*
X77358000Y-111063500D02*
G75*
G02*
X82408000Y-111063500I2525000J0D01*
G01*
X77294500Y-87759000D02*
X77294500Y-94159000D01*
X82344500Y-87759000D02*
X82344500Y-94159000D01*
X77294500Y-94159000D02*
G75*
G03*
X82344500Y-94159000I2525000J0D01*
G01*
X77294500Y-87759000D02*
G75*
G02*
X82344500Y-87759000I2525000J0D01*
G01*
D10*
X99695000Y-148585000D02*
X99695000Y-107945000D01*
X99695000Y-107945000D02*
X89535000Y-107945000D01*
X89535000Y-107945000D02*
X89535000Y-148585000D01*
X89535000Y-148585000D02*
X99695000Y-148585000D01*
X104775000Y-158745000D02*
X104775000Y-148585000D01*
X104775000Y-148585000D02*
X106045000Y-148585000D01*
X84455000Y-102865000D02*
X83185000Y-104135000D01*
X83185000Y-104135000D02*
X83185000Y-152395000D01*
X83185000Y-152395000D02*
X84455000Y-153665000D01*
X84455000Y-153665000D02*
X104775000Y-153665000D01*
X104775000Y-153665000D02*
X106045000Y-152395000D01*
X106045000Y-152395000D02*
X106045000Y-104135000D01*
X106045000Y-104135000D02*
X104775000Y-102865000D01*
X104775000Y-102865000D02*
X84455000Y-102865000D01*
X106045000Y-158745000D02*
X106045000Y-152395000D01*
X106045000Y-158745000D02*
X104775000Y-158745000D01*
X104775000Y-158745000D02*
X103505000Y-160015000D01*
X103505000Y-160015000D02*
X103505000Y-166365000D01*
X103505000Y-166365000D02*
X104775000Y-167635000D01*
X104775000Y-167635000D02*
X106045000Y-167635000D01*
X106045000Y-167635000D02*
X107315000Y-166365000D01*
X107315000Y-166365000D02*
X107315000Y-160015000D01*
X107315000Y-160015000D02*
X106045000Y-158745000D01*
X86735500Y-84909500D02*
X86735500Y-85134500D01*
X93985500Y-84909500D02*
X93985500Y-85234500D01*
X93985500Y-92159500D02*
X93985500Y-91834500D01*
X86735500Y-92159500D02*
X86735500Y-91834500D01*
X86735500Y-84909500D02*
X87060500Y-84909500D01*
X86735500Y-92159500D02*
X87060500Y-92159500D01*
X93985500Y-92159500D02*
X93660500Y-92159500D01*
X93985500Y-84909500D02*
X93660500Y-84909500D01*
X86735500Y-85134500D02*
X85310500Y-85134500D01*
D12*
X101809500Y-82542000D02*
X102809500Y-82042000D01*
X101809500Y-81542000D02*
X101809500Y-82542000D01*
X102809500Y-82042000D02*
X101809500Y-81542000D01*
X104509500Y-89172000D02*
X103199500Y-89172000D01*
X104509500Y-89172000D02*
X104509500Y-89172000D01*
X104509500Y-96112000D02*
X104509500Y-89172000D01*
X111009500Y-96112000D02*
X104509500Y-96112000D01*
X111009500Y-78132000D02*
X111009500Y-96112000D01*
X104509500Y-78132000D02*
X111009500Y-78132000D01*
X104509500Y-85072000D02*
X104509500Y-78132000D01*
X103199500Y-85072000D02*
X104509500Y-85072000D01*
X103199500Y-97412000D02*
X103199500Y-76832000D01*
X112319500Y-97412000D02*
X103199500Y-97412000D01*
X112319500Y-76832000D02*
X112319500Y-97412000D01*
X103199500Y-76832000D02*
X112319500Y-76832000D01*
X88819500Y-69795500D02*
X88819500Y-65895500D01*
X90819500Y-69795500D02*
X90819500Y-65895500D01*
X88819500Y-69795500D02*
X90819500Y-69795500D01*
X86419500Y-69795500D02*
X86419500Y-65895500D01*
X88419500Y-69795500D02*
X88419500Y-65895500D01*
X86419500Y-69795500D02*
X88419500Y-69795500D01*
X101473000Y-66018167D02*
X102743000Y-66018167D01*
X102673000Y-67371500D02*
X102673000Y-66018167D01*
X102553000Y-67371500D02*
X102553000Y-66018167D01*
X102433000Y-67371500D02*
X102433000Y-66018167D01*
X102313000Y-67371500D02*
X102313000Y-66018167D01*
X102193000Y-67371500D02*
X102193000Y-66018167D01*
X102073000Y-67371500D02*
X102073000Y-66018167D01*
X101953000Y-67371500D02*
X101953000Y-66018167D01*
X101833000Y-67371500D02*
X101833000Y-66018167D01*
X101713000Y-67371500D02*
X101713000Y-66018167D01*
X101593000Y-67371500D02*
X101593000Y-66018167D01*
X101473000Y-63311500D02*
X101473000Y-67371500D01*
X102743000Y-63311500D02*
X101473000Y-63311500D01*
X102743000Y-67371500D02*
X102743000Y-63311500D01*
X101473000Y-67371500D02*
X102743000Y-67371500D01*
X98933000Y-66018167D02*
X100203000Y-66018167D01*
X100133000Y-67371500D02*
X100133000Y-66018167D01*
X100013000Y-67371500D02*
X100013000Y-66018167D01*
X99893000Y-67371500D02*
X99893000Y-66018167D01*
X99773000Y-67371500D02*
X99773000Y-66018167D01*
X99653000Y-67371500D02*
X99653000Y-66018167D01*
X99533000Y-67371500D02*
X99533000Y-66018167D01*
X99413000Y-67371500D02*
X99413000Y-66018167D01*
X99293000Y-67371500D02*
X99293000Y-66018167D01*
X99173000Y-67371500D02*
X99173000Y-66018167D01*
X99053000Y-67371500D02*
X99053000Y-66018167D01*
X98933000Y-63311500D02*
X98933000Y-67371500D01*
X100203000Y-63311500D02*
X98933000Y-63311500D01*
X100203000Y-67371500D02*
X100203000Y-63311500D01*
X98933000Y-67371500D02*
X100203000Y-67371500D01*
X96393000Y-66018167D02*
X97663000Y-66018167D01*
X97593000Y-67371500D02*
X97593000Y-66018167D01*
X97473000Y-67371500D02*
X97473000Y-66018167D01*
X97353000Y-67371500D02*
X97353000Y-66018167D01*
X97233000Y-67371500D02*
X97233000Y-66018167D01*
X97113000Y-67371500D02*
X97113000Y-66018167D01*
X96993000Y-67371500D02*
X96993000Y-66018167D01*
X96873000Y-67371500D02*
X96873000Y-66018167D01*
X96753000Y-67371500D02*
X96753000Y-66018167D01*
X96633000Y-67371500D02*
X96633000Y-66018167D01*
X96513000Y-67371500D02*
X96513000Y-66018167D01*
X96393000Y-63311500D02*
X96393000Y-67371500D01*
X97663000Y-63311500D02*
X96393000Y-63311500D01*
X97663000Y-67371500D02*
X97663000Y-63311500D01*
X96393000Y-67371500D02*
X97663000Y-67371500D01*
X94368000Y-70531500D02*
X95751000Y-70531500D01*
X94368000Y-70531500D02*
X94368000Y-69147500D01*
X94608000Y-60391500D02*
X104528000Y-60391500D01*
X94608000Y-70291500D02*
X104528000Y-70291500D01*
X104528000Y-70291500D02*
X104528000Y-60391500D01*
X94608000Y-70291500D02*
X94608000Y-60391500D01*
X71384500Y-71718436D02*
X71384500Y-72172564D01*
X72854500Y-71718436D02*
X72854500Y-72172564D01*
X73274500Y-64441752D02*
X73274500Y-61669248D01*
X69854500Y-64441752D02*
X69854500Y-61669248D01*
X90454500Y-72172564D02*
X90454500Y-71718436D01*
X88984500Y-72172564D02*
X88984500Y-71718436D01*
X88254500Y-72172564D02*
X88254500Y-71718436D01*
X86784500Y-72172564D02*
X86784500Y-71718436D01*
X86054500Y-72172564D02*
X86054500Y-71718436D01*
X84584500Y-72172564D02*
X84584500Y-71718436D01*
X82384500Y-71718436D02*
X82384500Y-72172564D01*
X83854500Y-71718436D02*
X83854500Y-72172564D01*
X75784500Y-71718436D02*
X75784500Y-72172564D01*
X77254500Y-71718436D02*
X77254500Y-72172564D01*
X73584500Y-71718436D02*
X73584500Y-72172564D01*
X75054500Y-71718436D02*
X75054500Y-72172564D01*
X81879500Y-73630500D02*
X81879500Y-70945500D01*
X79959500Y-73630500D02*
X81879500Y-73630500D01*
X79959500Y-70945500D02*
X79959500Y-73630500D01*
X79679500Y-73630500D02*
X79679500Y-70945500D01*
X77759500Y-73630500D02*
X79679500Y-73630500D01*
X77759500Y-70945500D02*
X77759500Y-73630500D01*
X84491500Y-87462252D02*
X84491500Y-86939748D01*
X83021500Y-87462252D02*
X83021500Y-86939748D01*
X79621748Y-99096500D02*
X80144252Y-99096500D01*
X79621748Y-97626500D02*
X80144252Y-97626500D01*
X80080752Y-82894500D02*
X79558248Y-82894500D01*
X80080752Y-84364500D02*
X79558248Y-84364500D01*
X88254500Y-63356752D02*
X88254500Y-62834248D01*
X86784500Y-63356752D02*
X86784500Y-62834248D01*
D10*
X60071000Y-148590000D02*
X60071000Y-92710000D01*
X60071000Y-92710000D02*
X70231000Y-92710000D01*
X70231000Y-92710000D02*
X70231000Y-148590000D01*
X70231000Y-148590000D02*
X60071000Y-148590000D01*
X75311000Y-148590000D02*
X76581000Y-148590000D01*
X75311000Y-167640000D02*
X76581000Y-167640000D01*
X76581000Y-167640000D02*
X77851000Y-166370000D01*
X77851000Y-166370000D02*
X77851000Y-160020000D01*
X77851000Y-160020000D02*
X76581000Y-158750000D01*
X76581000Y-158750000D02*
X75311000Y-158750000D01*
X75311000Y-158750000D02*
X75311000Y-148590000D01*
X76581000Y-158750000D02*
X76581000Y-152400000D01*
X75311000Y-158750000D02*
X74041000Y-160020000D01*
X74041000Y-160020000D02*
X74041000Y-166370000D01*
X74041000Y-166370000D02*
X75311000Y-167640000D01*
X53721000Y-152400000D02*
X53721000Y-88900000D01*
X53721000Y-88900000D02*
X54991000Y-87630000D01*
X54991000Y-87630000D02*
X75311000Y-87630000D01*
X75311000Y-87630000D02*
X76581000Y-88900000D01*
X76581000Y-88900000D02*
X76581000Y-152400000D01*
X76581000Y-152400000D02*
X75311000Y-153670000D01*
X75311000Y-153670000D02*
X54991000Y-153670000D01*
X54991000Y-153670000D02*
X53721000Y-152400000D01*
D12*
X97699500Y-89952564D02*
X97699500Y-89498436D01*
X96229500Y-89952564D02*
X96229500Y-89498436D01*
X91184500Y-62868436D02*
X91184500Y-63322564D01*
X92654500Y-62868436D02*
X92654500Y-63322564D01*
X88984500Y-62868436D02*
X88984500Y-63322564D01*
X90454500Y-62868436D02*
X90454500Y-63322564D01*
X109212748Y-132243500D02*
X109735252Y-132243500D01*
X109212748Y-130773500D02*
X109735252Y-130773500D01*
X109085748Y-115225500D02*
X109608252Y-115225500D01*
X109085748Y-113755500D02*
X109608252Y-113755500D01*
X109212748Y-130021000D02*
X109735252Y-130021000D01*
X109212748Y-128551000D02*
X109735252Y-128551000D01*
X52741500Y-119323752D02*
X52741500Y-118801248D01*
X51271500Y-119323752D02*
X51271500Y-118801248D01*
X80080752Y-123151000D02*
X79558248Y-123151000D01*
X80080752Y-124621000D02*
X79558248Y-124621000D01*
X80080752Y-120931000D02*
X79558248Y-120931000D01*
X80080752Y-122401000D02*
X79558248Y-122401000D01*
X79558248Y-107542000D02*
X80080752Y-107542000D01*
X79558248Y-106072000D02*
X80080752Y-106072000D01*
D10*
X78098902Y-59148010D02*
X78098902Y-59957534D01*
X78146521Y-60052772D01*
X78194140Y-60100391D01*
X78289378Y-60148010D01*
X78479855Y-60148010D01*
X78575093Y-60100391D01*
X78622712Y-60052772D01*
X78670331Y-59957534D01*
X78670331Y-59148010D01*
X79098902Y-60100391D02*
X79241759Y-60148010D01*
X79479855Y-60148010D01*
X79575093Y-60100391D01*
X79622712Y-60052772D01*
X79670331Y-59957534D01*
X79670331Y-59862296D01*
X79622712Y-59767058D01*
X79575093Y-59719439D01*
X79479855Y-59671820D01*
X79289378Y-59624201D01*
X79194140Y-59576582D01*
X79146521Y-59528963D01*
X79098902Y-59433725D01*
X79098902Y-59338487D01*
X79146521Y-59243249D01*
X79194140Y-59195630D01*
X79289378Y-59148010D01*
X79527474Y-59148010D01*
X79670331Y-59195630D01*
X80432236Y-59624201D02*
X80575093Y-59671820D01*
X80622712Y-59719439D01*
X80670331Y-59814677D01*
X80670331Y-59957534D01*
X80622712Y-60052772D01*
X80575093Y-60100391D01*
X80479855Y-60148010D01*
X80098902Y-60148010D01*
X80098902Y-59148010D01*
X80432236Y-59148010D01*
X80527474Y-59195630D01*
X80575093Y-59243249D01*
X80622712Y-59338487D01*
X80622712Y-59433725D01*
X80575093Y-59528963D01*
X80527474Y-59576582D01*
X80432236Y-59624201D01*
X80098902Y-59624201D01*
X81622712Y-60148010D02*
X81051283Y-60148010D01*
X81336998Y-60148010D02*
X81336998Y-59148010D01*
X81241759Y-59290868D01*
X81146521Y-59386106D01*
X81051283Y-59433725D01*
X112886290Y-122346990D02*
X113362480Y-122346990D01*
X112362480Y-122680323D02*
X112886290Y-122346990D01*
X112362480Y-122013657D01*
X112362480Y-121775561D02*
X112362480Y-121156514D01*
X112743433Y-121489847D01*
X112743433Y-121346990D01*
X112791052Y-121251752D01*
X112838671Y-121204133D01*
X112933909Y-121156514D01*
X113172004Y-121156514D01*
X113267242Y-121204133D01*
X113314861Y-121251752D01*
X113362480Y-121346990D01*
X113362480Y-121632704D01*
X113314861Y-121727942D01*
X113267242Y-121775561D01*
X83384190Y-114739690D02*
X83860380Y-114739690D01*
X82860380Y-115073023D02*
X83384190Y-114739690D01*
X82860380Y-114406357D01*
X82955619Y-114120642D02*
X82908000Y-114073023D01*
X82860380Y-113977785D01*
X82860380Y-113739690D01*
X82908000Y-113644452D01*
X82955619Y-113596833D01*
X83050857Y-113549214D01*
X83146095Y-113549214D01*
X83288952Y-113596833D01*
X83860380Y-114168261D01*
X83860380Y-113549214D01*
X79795690Y-91435190D02*
X80271880Y-91435190D01*
X79271880Y-91768523D02*
X79795690Y-91435190D01*
X79271880Y-91101857D01*
X80271880Y-90244714D02*
X80271880Y-90816142D01*
X80271880Y-90530428D02*
X79271880Y-90530428D01*
X79414738Y-90625666D01*
X79509976Y-90720904D01*
X79557595Y-90816142D01*
X94067380Y-127761904D02*
X94876904Y-127761904D01*
X94972142Y-127714285D01*
X95019761Y-127666666D01*
X95067380Y-127571428D01*
X95067380Y-127380952D01*
X95019761Y-127285714D01*
X94972142Y-127238095D01*
X94876904Y-127190476D01*
X94067380Y-127190476D01*
X94067380Y-126809523D02*
X94067380Y-126190476D01*
X94448333Y-126523809D01*
X94448333Y-126380952D01*
X94495952Y-126285714D01*
X94543571Y-126238095D01*
X94638809Y-126190476D01*
X94876904Y-126190476D01*
X94972142Y-126238095D01*
X95019761Y-126285714D01*
X95067380Y-126380952D01*
X95067380Y-126666666D01*
X95019761Y-126761904D01*
X94972142Y-126809523D01*
X89598595Y-87596130D02*
X89598595Y-88405654D01*
X89646214Y-88500892D01*
X89693833Y-88548511D01*
X89789071Y-88596130D01*
X89979547Y-88596130D01*
X90074785Y-88548511D01*
X90122404Y-88500892D01*
X90170023Y-88405654D01*
X90170023Y-87596130D01*
X91170023Y-88596130D02*
X90598595Y-88596130D01*
X90884309Y-88596130D02*
X90884309Y-87596130D01*
X90789071Y-87738988D01*
X90693833Y-87834226D01*
X90598595Y-87881845D01*
X107426166Y-75394380D02*
X107426166Y-76108666D01*
X107378547Y-76251523D01*
X107283309Y-76346761D01*
X107140452Y-76394380D01*
X107045214Y-76394380D01*
X108426166Y-76394380D02*
X107854738Y-76394380D01*
X108140452Y-76394380D02*
X108140452Y-75394380D01*
X108045214Y-75537238D01*
X107949976Y-75632476D01*
X107854738Y-75680095D01*
X90277880Y-68283595D02*
X89277880Y-68283595D01*
X89277880Y-68045500D01*
X89325500Y-67902642D01*
X89420738Y-67807404D01*
X89515976Y-67759785D01*
X89706452Y-67712166D01*
X89849309Y-67712166D01*
X90039785Y-67759785D01*
X90135023Y-67807404D01*
X90230261Y-67902642D01*
X90277880Y-68045500D01*
X90277880Y-68283595D01*
X89611214Y-66855023D02*
X90277880Y-66855023D01*
X89230261Y-67093119D02*
X89944547Y-67331214D01*
X89944547Y-66712166D01*
X87918880Y-68283595D02*
X86918880Y-68283595D01*
X86918880Y-68045500D01*
X86966500Y-67902642D01*
X87061738Y-67807404D01*
X87156976Y-67759785D01*
X87347452Y-67712166D01*
X87490309Y-67712166D01*
X87680785Y-67759785D01*
X87776023Y-67807404D01*
X87871261Y-67902642D01*
X87918880Y-68045500D01*
X87918880Y-68283595D01*
X86918880Y-67378833D02*
X86918880Y-66759785D01*
X87299833Y-67093119D01*
X87299833Y-66950261D01*
X87347452Y-66855023D01*
X87395071Y-66807404D01*
X87490309Y-66759785D01*
X87728404Y-66759785D01*
X87823642Y-66807404D01*
X87871261Y-66855023D01*
X87918880Y-66950261D01*
X87918880Y-67235976D01*
X87871261Y-67331214D01*
X87823642Y-67378833D01*
X94012761Y-66674833D02*
X94060380Y-66531976D01*
X94060380Y-66293880D01*
X94012761Y-66198642D01*
X93965142Y-66151023D01*
X93869904Y-66103404D01*
X93774666Y-66103404D01*
X93679428Y-66151023D01*
X93631809Y-66198642D01*
X93584190Y-66293880D01*
X93536571Y-66484357D01*
X93488952Y-66579595D01*
X93441333Y-66627214D01*
X93346095Y-66674833D01*
X93250857Y-66674833D01*
X93155619Y-66627214D01*
X93108000Y-66579595D01*
X93060380Y-66484357D01*
X93060380Y-66246261D01*
X93108000Y-66103404D01*
X93060380Y-65770071D02*
X94060380Y-65531976D01*
X93346095Y-65341500D01*
X94060380Y-65151023D01*
X93060380Y-64912928D01*
X94060380Y-64008166D02*
X94060380Y-64579595D01*
X94060380Y-64293880D02*
X93060380Y-64293880D01*
X93203238Y-64389119D01*
X93298476Y-64484357D01*
X93346095Y-64579595D01*
X72651880Y-75826857D02*
X72175690Y-76160190D01*
X72651880Y-76398285D02*
X71651880Y-76398285D01*
X71651880Y-76017333D01*
X71699500Y-75922095D01*
X71747119Y-75874476D01*
X71842357Y-75826857D01*
X71985214Y-75826857D01*
X72080452Y-75874476D01*
X72128071Y-75922095D01*
X72175690Y-76017333D01*
X72175690Y-76398285D01*
X72651880Y-74874476D02*
X72651880Y-75445904D01*
X72651880Y-75160190D02*
X71651880Y-75160190D01*
X71794738Y-75255428D01*
X71889976Y-75350666D01*
X71937595Y-75445904D01*
X71651880Y-74255428D02*
X71651880Y-74160190D01*
X71699500Y-74064952D01*
X71747119Y-74017333D01*
X71842357Y-73969714D01*
X72032833Y-73922095D01*
X72270928Y-73922095D01*
X72461404Y-73969714D01*
X72556642Y-74017333D01*
X72604261Y-74064952D01*
X72651880Y-74160190D01*
X72651880Y-74255428D01*
X72604261Y-74350666D01*
X72556642Y-74398285D01*
X72461404Y-74445904D01*
X72270928Y-74493523D01*
X72032833Y-74493523D01*
X71842357Y-74445904D01*
X71747119Y-74398285D01*
X71699500Y-74350666D01*
X71651880Y-74255428D01*
X68843071Y-63388833D02*
X68843071Y-63722166D01*
X69366880Y-63722166D02*
X68366880Y-63722166D01*
X68366880Y-63245976D01*
X69366880Y-62341214D02*
X69366880Y-62912642D01*
X69366880Y-62626928D02*
X68366880Y-62626928D01*
X68509738Y-62722166D01*
X68604976Y-62817404D01*
X68652595Y-62912642D01*
X90171880Y-74842666D02*
X89695690Y-75176000D01*
X90171880Y-75414095D02*
X89171880Y-75414095D01*
X89171880Y-75033142D01*
X89219500Y-74937904D01*
X89267119Y-74890285D01*
X89362357Y-74842666D01*
X89505214Y-74842666D01*
X89600452Y-74890285D01*
X89648071Y-74937904D01*
X89695690Y-75033142D01*
X89695690Y-75414095D01*
X89171880Y-73985523D02*
X89171880Y-74176000D01*
X89219500Y-74271238D01*
X89267119Y-74318857D01*
X89409976Y-74414095D01*
X89600452Y-74461714D01*
X89981404Y-74461714D01*
X90076642Y-74414095D01*
X90124261Y-74366476D01*
X90171880Y-74271238D01*
X90171880Y-74080761D01*
X90124261Y-73985523D01*
X90076642Y-73937904D01*
X89981404Y-73890285D01*
X89743309Y-73890285D01*
X89648071Y-73937904D01*
X89600452Y-73985523D01*
X89552833Y-74080761D01*
X89552833Y-74271238D01*
X89600452Y-74366476D01*
X89648071Y-74414095D01*
X89743309Y-74461714D01*
X87971880Y-74842666D02*
X87495690Y-75176000D01*
X87971880Y-75414095D02*
X86971880Y-75414095D01*
X86971880Y-75033142D01*
X87019500Y-74937904D01*
X87067119Y-74890285D01*
X87162357Y-74842666D01*
X87305214Y-74842666D01*
X87400452Y-74890285D01*
X87448071Y-74937904D01*
X87495690Y-75033142D01*
X87495690Y-75414095D01*
X86971880Y-73937904D02*
X86971880Y-74414095D01*
X87448071Y-74461714D01*
X87400452Y-74414095D01*
X87352833Y-74318857D01*
X87352833Y-74080761D01*
X87400452Y-73985523D01*
X87448071Y-73937904D01*
X87543309Y-73890285D01*
X87781404Y-73890285D01*
X87876642Y-73937904D01*
X87924261Y-73985523D01*
X87971880Y-74080761D01*
X87971880Y-74318857D01*
X87924261Y-74414095D01*
X87876642Y-74461714D01*
X85771880Y-74842666D02*
X85295690Y-75176000D01*
X85771880Y-75414095D02*
X84771880Y-75414095D01*
X84771880Y-75033142D01*
X84819500Y-74937904D01*
X84867119Y-74890285D01*
X84962357Y-74842666D01*
X85105214Y-74842666D01*
X85200452Y-74890285D01*
X85248071Y-74937904D01*
X85295690Y-75033142D01*
X85295690Y-75414095D01*
X85105214Y-73985523D02*
X85771880Y-73985523D01*
X84724261Y-74223619D02*
X85438547Y-74461714D01*
X85438547Y-73842666D01*
X83571880Y-74842666D02*
X83095690Y-75176000D01*
X83571880Y-75414095D02*
X82571880Y-75414095D01*
X82571880Y-75033142D01*
X82619500Y-74937904D01*
X82667119Y-74890285D01*
X82762357Y-74842666D01*
X82905214Y-74842666D01*
X83000452Y-74890285D01*
X83048071Y-74937904D01*
X83095690Y-75033142D01*
X83095690Y-75414095D01*
X82571880Y-74509333D02*
X82571880Y-73890285D01*
X82952833Y-74223619D01*
X82952833Y-74080761D01*
X83000452Y-73985523D01*
X83048071Y-73937904D01*
X83143309Y-73890285D01*
X83381404Y-73890285D01*
X83476642Y-73937904D01*
X83524261Y-73985523D01*
X83571880Y-74080761D01*
X83571880Y-74366476D01*
X83524261Y-74461714D01*
X83476642Y-74509333D01*
X76971880Y-74842666D02*
X76495690Y-75176000D01*
X76971880Y-75414095D02*
X75971880Y-75414095D01*
X75971880Y-75033142D01*
X76019500Y-74937904D01*
X76067119Y-74890285D01*
X76162357Y-74842666D01*
X76305214Y-74842666D01*
X76400452Y-74890285D01*
X76448071Y-74937904D01*
X76495690Y-75033142D01*
X76495690Y-75414095D01*
X76067119Y-74461714D02*
X76019500Y-74414095D01*
X75971880Y-74318857D01*
X75971880Y-74080761D01*
X76019500Y-73985523D01*
X76067119Y-73937904D01*
X76162357Y-73890285D01*
X76257595Y-73890285D01*
X76400452Y-73937904D01*
X76971880Y-74509333D01*
X76971880Y-73890285D01*
X74771880Y-74842666D02*
X74295690Y-75176000D01*
X74771880Y-75414095D02*
X73771880Y-75414095D01*
X73771880Y-75033142D01*
X73819500Y-74937904D01*
X73867119Y-74890285D01*
X73962357Y-74842666D01*
X74105214Y-74842666D01*
X74200452Y-74890285D01*
X74248071Y-74937904D01*
X74295690Y-75033142D01*
X74295690Y-75414095D01*
X74771880Y-73890285D02*
X74771880Y-74461714D01*
X74771880Y-74176000D02*
X73771880Y-74176000D01*
X73914738Y-74271238D01*
X74009976Y-74366476D01*
X74057595Y-74461714D01*
X81371880Y-75414095D02*
X80371880Y-75414095D01*
X80371880Y-75176000D01*
X80419500Y-75033142D01*
X80514738Y-74937904D01*
X80609976Y-74890285D01*
X80800452Y-74842666D01*
X80943309Y-74842666D01*
X81133785Y-74890285D01*
X81229023Y-74937904D01*
X81324261Y-75033142D01*
X81371880Y-75176000D01*
X81371880Y-75414095D01*
X80467119Y-74461714D02*
X80419500Y-74414095D01*
X80371880Y-74318857D01*
X80371880Y-74080761D01*
X80419500Y-73985523D01*
X80467119Y-73937904D01*
X80562357Y-73890285D01*
X80657595Y-73890285D01*
X80800452Y-73937904D01*
X81371880Y-74509333D01*
X81371880Y-73890285D01*
X79171880Y-75414095D02*
X78171880Y-75414095D01*
X78171880Y-75176000D01*
X78219500Y-75033142D01*
X78314738Y-74937904D01*
X78409976Y-74890285D01*
X78600452Y-74842666D01*
X78743309Y-74842666D01*
X78933785Y-74890285D01*
X79029023Y-74937904D01*
X79124261Y-75033142D01*
X79171880Y-75176000D01*
X79171880Y-75414095D01*
X79171880Y-73890285D02*
X79171880Y-74461714D01*
X79171880Y-74176000D02*
X78171880Y-74176000D01*
X78314738Y-74271238D01*
X78409976Y-74366476D01*
X78457595Y-74461714D01*
X84113642Y-90161666D02*
X84161261Y-90209285D01*
X84208880Y-90352142D01*
X84208880Y-90447380D01*
X84161261Y-90590238D01*
X84066023Y-90685476D01*
X83970785Y-90733095D01*
X83780309Y-90780714D01*
X83637452Y-90780714D01*
X83446976Y-90733095D01*
X83351738Y-90685476D01*
X83256500Y-90590238D01*
X83208880Y-90447380D01*
X83208880Y-90352142D01*
X83256500Y-90209285D01*
X83304119Y-90161666D01*
X83542214Y-89304523D02*
X84208880Y-89304523D01*
X83161261Y-89542619D02*
X83875547Y-89780714D01*
X83875547Y-89161666D01*
X77827142Y-98528166D02*
X77874761Y-98575785D01*
X77922380Y-98718642D01*
X77922380Y-98813880D01*
X77874761Y-98956738D01*
X77779523Y-99051976D01*
X77684285Y-99099595D01*
X77493809Y-99147214D01*
X77350952Y-99147214D01*
X77160476Y-99099595D01*
X77065238Y-99051976D01*
X76970000Y-98956738D01*
X76922380Y-98813880D01*
X76922380Y-98718642D01*
X76970000Y-98575785D01*
X77017619Y-98528166D01*
X76922380Y-98194833D02*
X76922380Y-97575785D01*
X77303333Y-97909119D01*
X77303333Y-97766261D01*
X77350952Y-97671023D01*
X77398571Y-97623404D01*
X77493809Y-97575785D01*
X77731904Y-97575785D01*
X77827142Y-97623404D01*
X77874761Y-97671023D01*
X77922380Y-97766261D01*
X77922380Y-98051976D01*
X77874761Y-98147214D01*
X77827142Y-98194833D01*
X77763642Y-83780666D02*
X77811261Y-83828285D01*
X77858880Y-83971142D01*
X77858880Y-84066380D01*
X77811261Y-84209238D01*
X77716023Y-84304476D01*
X77620785Y-84352095D01*
X77430309Y-84399714D01*
X77287452Y-84399714D01*
X77096976Y-84352095D01*
X77001738Y-84304476D01*
X76906500Y-84209238D01*
X76858880Y-84066380D01*
X76858880Y-83971142D01*
X76906500Y-83828285D01*
X76954119Y-83780666D01*
X76954119Y-83399714D02*
X76906500Y-83352095D01*
X76858880Y-83256857D01*
X76858880Y-83018761D01*
X76906500Y-82923523D01*
X76954119Y-82875904D01*
X77049357Y-82828285D01*
X77144595Y-82828285D01*
X77287452Y-82875904D01*
X77858880Y-83447333D01*
X77858880Y-82828285D01*
X87876642Y-60555166D02*
X87924261Y-60602785D01*
X87971880Y-60745642D01*
X87971880Y-60840880D01*
X87924261Y-60983738D01*
X87829023Y-61078976D01*
X87733785Y-61126595D01*
X87543309Y-61174214D01*
X87400452Y-61174214D01*
X87209976Y-61126595D01*
X87114738Y-61078976D01*
X87019500Y-60983738D01*
X86971880Y-60840880D01*
X86971880Y-60745642D01*
X87019500Y-60602785D01*
X87067119Y-60555166D01*
X87971880Y-59602785D02*
X87971880Y-60174214D01*
X87971880Y-59888500D02*
X86971880Y-59888500D01*
X87114738Y-59983738D01*
X87209976Y-60078976D01*
X87257595Y-60174214D01*
X64603380Y-120141904D02*
X65412904Y-120141904D01*
X65508142Y-120094285D01*
X65555761Y-120046666D01*
X65603380Y-119951428D01*
X65603380Y-119760952D01*
X65555761Y-119665714D01*
X65508142Y-119618095D01*
X65412904Y-119570476D01*
X64603380Y-119570476D01*
X64698619Y-119141904D02*
X64651000Y-119094285D01*
X64603380Y-118999047D01*
X64603380Y-118760952D01*
X64651000Y-118665714D01*
X64698619Y-118618095D01*
X64793857Y-118570476D01*
X64889095Y-118570476D01*
X65031952Y-118618095D01*
X65603380Y-119189523D01*
X65603380Y-118570476D01*
X97416880Y-92622666D02*
X96940690Y-92956000D01*
X97416880Y-93194095D02*
X96416880Y-93194095D01*
X96416880Y-92813142D01*
X96464500Y-92717904D01*
X96512119Y-92670285D01*
X96607357Y-92622666D01*
X96750214Y-92622666D01*
X96845452Y-92670285D01*
X96893071Y-92717904D01*
X96940690Y-92813142D01*
X96940690Y-93194095D01*
X97416880Y-92146476D02*
X97416880Y-91956000D01*
X97369261Y-91860761D01*
X97321642Y-91813142D01*
X97178785Y-91717904D01*
X96988309Y-91670285D01*
X96607357Y-91670285D01*
X96512119Y-91717904D01*
X96464500Y-91765523D01*
X96416880Y-91860761D01*
X96416880Y-92051238D01*
X96464500Y-92146476D01*
X96512119Y-92194095D01*
X96607357Y-92241714D01*
X96845452Y-92241714D01*
X96940690Y-92194095D01*
X96988309Y-92146476D01*
X97035928Y-92051238D01*
X97035928Y-91860761D01*
X96988309Y-91765523D01*
X96940690Y-91717904D01*
X96845452Y-91670285D01*
X92377880Y-60555166D02*
X91901690Y-60888500D01*
X92377880Y-61126595D02*
X91377880Y-61126595D01*
X91377880Y-60745642D01*
X91425500Y-60650404D01*
X91473119Y-60602785D01*
X91568357Y-60555166D01*
X91711214Y-60555166D01*
X91806452Y-60602785D01*
X91854071Y-60650404D01*
X91901690Y-60745642D01*
X91901690Y-61126595D01*
X91806452Y-59983738D02*
X91758833Y-60078976D01*
X91711214Y-60126595D01*
X91615976Y-60174214D01*
X91568357Y-60174214D01*
X91473119Y-60126595D01*
X91425500Y-60078976D01*
X91377880Y-59983738D01*
X91377880Y-59793261D01*
X91425500Y-59698023D01*
X91473119Y-59650404D01*
X91568357Y-59602785D01*
X91615976Y-59602785D01*
X91711214Y-59650404D01*
X91758833Y-59698023D01*
X91806452Y-59793261D01*
X91806452Y-59983738D01*
X91854071Y-60078976D01*
X91901690Y-60126595D01*
X91996928Y-60174214D01*
X92187404Y-60174214D01*
X92282642Y-60126595D01*
X92330261Y-60078976D01*
X92377880Y-59983738D01*
X92377880Y-59793261D01*
X92330261Y-59698023D01*
X92282642Y-59650404D01*
X92187404Y-59602785D01*
X91996928Y-59602785D01*
X91901690Y-59650404D01*
X91854071Y-59698023D01*
X91806452Y-59793261D01*
X90130880Y-60555166D02*
X89654690Y-60888500D01*
X90130880Y-61126595D02*
X89130880Y-61126595D01*
X89130880Y-60745642D01*
X89178500Y-60650404D01*
X89226119Y-60602785D01*
X89321357Y-60555166D01*
X89464214Y-60555166D01*
X89559452Y-60602785D01*
X89607071Y-60650404D01*
X89654690Y-60745642D01*
X89654690Y-61126595D01*
X89130880Y-60221833D02*
X89130880Y-59555166D01*
X90130880Y-59983738D01*
X107354642Y-132149785D02*
X107402261Y-132187880D01*
X107449880Y-132302166D01*
X107449880Y-132378357D01*
X107402261Y-132492642D01*
X107307023Y-132568833D01*
X107211785Y-132606928D01*
X107021309Y-132645023D01*
X106878452Y-132645023D01*
X106687976Y-132606928D01*
X106592738Y-132568833D01*
X106497500Y-132492642D01*
X106449880Y-132378357D01*
X106449880Y-132302166D01*
X106497500Y-132187880D01*
X106545119Y-132149785D01*
X107449880Y-131387880D02*
X107449880Y-131845023D01*
X107449880Y-131616452D02*
X106449880Y-131616452D01*
X106592738Y-131692642D01*
X106687976Y-131768833D01*
X106735595Y-131845023D01*
X106545119Y-131083119D02*
X106497500Y-131045023D01*
X106449880Y-130968833D01*
X106449880Y-130778357D01*
X106497500Y-130702166D01*
X106545119Y-130664071D01*
X106640357Y-130625976D01*
X106735595Y-130625976D01*
X106878452Y-130664071D01*
X107449880Y-131121214D01*
X107449880Y-130625976D01*
X107291142Y-115133357D02*
X107338761Y-115180976D01*
X107386380Y-115323833D01*
X107386380Y-115419071D01*
X107338761Y-115561928D01*
X107243523Y-115657166D01*
X107148285Y-115704785D01*
X106957809Y-115752404D01*
X106814952Y-115752404D01*
X106624476Y-115704785D01*
X106529238Y-115657166D01*
X106434000Y-115561928D01*
X106386380Y-115419071D01*
X106386380Y-115323833D01*
X106434000Y-115180976D01*
X106481619Y-115133357D01*
X107386380Y-114180976D02*
X107386380Y-114752404D01*
X107386380Y-114466690D02*
X106386380Y-114466690D01*
X106529238Y-114561928D01*
X106624476Y-114657166D01*
X106672095Y-114752404D01*
X107386380Y-113228595D02*
X107386380Y-113800023D01*
X107386380Y-113514309D02*
X106386380Y-113514309D01*
X106529238Y-113609547D01*
X106624476Y-113704785D01*
X106672095Y-113800023D01*
X107354642Y-129736785D02*
X107402261Y-129774880D01*
X107449880Y-129889166D01*
X107449880Y-129965357D01*
X107402261Y-130079642D01*
X107307023Y-130155833D01*
X107211785Y-130193928D01*
X107021309Y-130232023D01*
X106878452Y-130232023D01*
X106687976Y-130193928D01*
X106592738Y-130155833D01*
X106497500Y-130079642D01*
X106449880Y-129965357D01*
X106449880Y-129889166D01*
X106497500Y-129774880D01*
X106545119Y-129736785D01*
X107449880Y-128974880D02*
X107449880Y-129432023D01*
X107449880Y-129203452D02*
X106449880Y-129203452D01*
X106592738Y-129279642D01*
X106687976Y-129355833D01*
X106735595Y-129432023D01*
X106449880Y-128479642D02*
X106449880Y-128403452D01*
X106497500Y-128327261D01*
X106545119Y-128289166D01*
X106640357Y-128251071D01*
X106830833Y-128212976D01*
X107068928Y-128212976D01*
X107259404Y-128251071D01*
X107354642Y-128289166D01*
X107402261Y-128327261D01*
X107449880Y-128403452D01*
X107449880Y-128479642D01*
X107402261Y-128555833D01*
X107354642Y-128593928D01*
X107259404Y-128632023D01*
X107068928Y-128670119D01*
X106830833Y-128670119D01*
X106640357Y-128632023D01*
X106545119Y-128593928D01*
X106497500Y-128555833D01*
X106449880Y-128479642D01*
X50683642Y-119229166D02*
X50731261Y-119276785D01*
X50778880Y-119419642D01*
X50778880Y-119514880D01*
X50731261Y-119657738D01*
X50636023Y-119752976D01*
X50540785Y-119800595D01*
X50350309Y-119848214D01*
X50207452Y-119848214D01*
X50016976Y-119800595D01*
X49921738Y-119752976D01*
X49826500Y-119657738D01*
X49778880Y-119514880D01*
X49778880Y-119419642D01*
X49826500Y-119276785D01*
X49874119Y-119229166D01*
X50778880Y-118752976D02*
X50778880Y-118562500D01*
X50731261Y-118467261D01*
X50683642Y-118419642D01*
X50540785Y-118324404D01*
X50350309Y-118276785D01*
X49969357Y-118276785D01*
X49874119Y-118324404D01*
X49826500Y-118372023D01*
X49778880Y-118467261D01*
X49778880Y-118657738D01*
X49826500Y-118752976D01*
X49874119Y-118800595D01*
X49969357Y-118848214D01*
X50207452Y-118848214D01*
X50302690Y-118800595D01*
X50350309Y-118752976D01*
X50397928Y-118657738D01*
X50397928Y-118467261D01*
X50350309Y-118372023D01*
X50302690Y-118324404D01*
X50207452Y-118276785D01*
X77763642Y-124050166D02*
X77811261Y-124097785D01*
X77858880Y-124240642D01*
X77858880Y-124335880D01*
X77811261Y-124478738D01*
X77716023Y-124573976D01*
X77620785Y-124621595D01*
X77430309Y-124669214D01*
X77287452Y-124669214D01*
X77096976Y-124621595D01*
X77001738Y-124573976D01*
X76906500Y-124478738D01*
X76858880Y-124335880D01*
X76858880Y-124240642D01*
X76906500Y-124097785D01*
X76954119Y-124050166D01*
X77287452Y-123478738D02*
X77239833Y-123573976D01*
X77192214Y-123621595D01*
X77096976Y-123669214D01*
X77049357Y-123669214D01*
X76954119Y-123621595D01*
X76906500Y-123573976D01*
X76858880Y-123478738D01*
X76858880Y-123288261D01*
X76906500Y-123193023D01*
X76954119Y-123145404D01*
X77049357Y-123097785D01*
X77096976Y-123097785D01*
X77192214Y-123145404D01*
X77239833Y-123193023D01*
X77287452Y-123288261D01*
X77287452Y-123478738D01*
X77335071Y-123573976D01*
X77382690Y-123621595D01*
X77477928Y-123669214D01*
X77668404Y-123669214D01*
X77763642Y-123621595D01*
X77811261Y-123573976D01*
X77858880Y-123478738D01*
X77858880Y-123288261D01*
X77811261Y-123193023D01*
X77763642Y-123145404D01*
X77668404Y-123097785D01*
X77477928Y-123097785D01*
X77382690Y-123145404D01*
X77335071Y-123193023D01*
X77287452Y-123288261D01*
X77763642Y-121832666D02*
X77811261Y-121880285D01*
X77858880Y-122023142D01*
X77858880Y-122118380D01*
X77811261Y-122261238D01*
X77716023Y-122356476D01*
X77620785Y-122404095D01*
X77430309Y-122451714D01*
X77287452Y-122451714D01*
X77096976Y-122404095D01*
X77001738Y-122356476D01*
X76906500Y-122261238D01*
X76858880Y-122118380D01*
X76858880Y-122023142D01*
X76906500Y-121880285D01*
X76954119Y-121832666D01*
X76858880Y-121499333D02*
X76858880Y-120832666D01*
X77858880Y-121261238D01*
X77763642Y-106973666D02*
X77811261Y-107021285D01*
X77858880Y-107164142D01*
X77858880Y-107259380D01*
X77811261Y-107402238D01*
X77716023Y-107497476D01*
X77620785Y-107545095D01*
X77430309Y-107592714D01*
X77287452Y-107592714D01*
X77096976Y-107545095D01*
X77001738Y-107497476D01*
X76906500Y-107402238D01*
X76858880Y-107259380D01*
X76858880Y-107164142D01*
X76906500Y-107021285D01*
X76954119Y-106973666D01*
X76858880Y-106116523D02*
X76858880Y-106307000D01*
X76906500Y-106402238D01*
X76954119Y-106449857D01*
X77096976Y-106545095D01*
X77287452Y-106592714D01*
X77668404Y-106592714D01*
X77763642Y-106545095D01*
X77811261Y-106497476D01*
X77858880Y-106402238D01*
X77858880Y-106211761D01*
X77811261Y-106116523D01*
X77763642Y-106068904D01*
X77668404Y-106021285D01*
X77430309Y-106021285D01*
X77335071Y-106068904D01*
X77287452Y-106116523D01*
X77239833Y-106211761D01*
X77239833Y-106402238D01*
X77287452Y-106497476D01*
X77335071Y-106545095D01*
X77430309Y-106592714D01*
M02*
