%TF.GenerationSoftware,KiCad,Pcbnew,5.1.10-88a1d61d58~88~ubuntu21.04.1*%
%TF.CreationDate,2021-07-07T15:16:44+02:00*%
%TF.ProjectId,USBaspDualZif,55534261-7370-4447-9561-6c5a69662e6b,V1.0*%
%TF.SameCoordinates,Original*%
%TF.FileFunction,Soldermask,Top*%
%TF.FilePolarity,Negative*%
%FSLAX46Y46*%
G04 Gerber Fmt 4.6, Leading zero omitted, Abs format (unit mm)*
G04 Created by KiCad (PCBNEW 5.1.10-88a1d61d58~88~ubuntu21.04.1) date 2021-07-07 15:16:44*
%MOMM*%
%LPD*%
G01*
G04 APERTURE LIST*
%ADD10C,0.300000*%
%TA.AperFunction,Profile*%
%ADD11C,0.200000*%
%TD*%
%ADD12O,0.752000X1.102000*%
%ADD13O,1.002000X2.502000*%
%ADD14O,1.002000X1.802000*%
%ADD15C,2.302000*%
%ADD16C,4.102000*%
%ADD17C,1.802000*%
%ADD18C,1.602000*%
%ADD19C,1.626000*%
%ADD20O,1.702000X1.702000*%
%ADD21C,4.502000*%
%ADD22C,0.150000*%
G04 APERTURE END LIST*
D10*
X55618000Y-63026857D02*
X55618000Y-61826857D01*
X55927523Y-61826857D01*
X56113238Y-61884000D01*
X56237047Y-61998285D01*
X56298952Y-62112571D01*
X56360857Y-62341142D01*
X56360857Y-62512571D01*
X56298952Y-62741142D01*
X56237047Y-62855428D01*
X56113238Y-62969714D01*
X55927523Y-63026857D01*
X55618000Y-63026857D01*
X57165619Y-61826857D02*
X57413238Y-61826857D01*
X57537047Y-61884000D01*
X57660857Y-61998285D01*
X57722761Y-62226857D01*
X57722761Y-62626857D01*
X57660857Y-62855428D01*
X57537047Y-62969714D01*
X57413238Y-63026857D01*
X57165619Y-63026857D01*
X57041809Y-62969714D01*
X56918000Y-62855428D01*
X56856095Y-62626857D01*
X56856095Y-62226857D01*
X56918000Y-61998285D01*
X57041809Y-61884000D01*
X57165619Y-61826857D01*
X58279904Y-63026857D02*
X58279904Y-61826857D01*
X59022761Y-63026857D01*
X59022761Y-61826857D01*
X59703714Y-61826857D02*
X59579904Y-62055428D01*
X60075142Y-61826857D02*
X60818000Y-61826857D01*
X60446571Y-63026857D02*
X60446571Y-61826857D01*
X62241809Y-63026857D02*
X62241809Y-61826857D01*
X62737047Y-61826857D01*
X62860857Y-61884000D01*
X62922761Y-61941142D01*
X62984666Y-62055428D01*
X62984666Y-62226857D01*
X62922761Y-62341142D01*
X62860857Y-62398285D01*
X62737047Y-62455428D01*
X62241809Y-62455428D01*
X63479904Y-62684000D02*
X64098952Y-62684000D01*
X63356095Y-63026857D02*
X63789428Y-61826857D01*
X64222761Y-63026857D01*
X64656095Y-63026857D02*
X64656095Y-61826857D01*
X65398952Y-63026857D01*
X65398952Y-61826857D01*
X66018000Y-63026857D02*
X66018000Y-61826857D01*
X67379904Y-62912571D02*
X67318000Y-62969714D01*
X67132285Y-63026857D01*
X67008476Y-63026857D01*
X66822761Y-62969714D01*
X66698952Y-62855428D01*
X66637047Y-62741142D01*
X66575142Y-62512571D01*
X66575142Y-62341142D01*
X66637047Y-62112571D01*
X66698952Y-61998285D01*
X66822761Y-61884000D01*
X67008476Y-61826857D01*
X67132285Y-61826857D01*
X67318000Y-61884000D01*
X67379904Y-61941142D01*
D11*
X48821500Y-58418500D02*
G75*
G03*
X46821500Y-60418500I0J-2000000D01*
G01*
X46821500Y-152917500D02*
G75*
G03*
X48821500Y-154917500I2000000J0D01*
G01*
X110823500Y-154916000D02*
G75*
G03*
X112823500Y-152916000I0J2000000D01*
G01*
X112823500Y-60420000D02*
G75*
G03*
X110823500Y-58420000I-2000000J0D01*
G01*
X46821500Y-152917500D02*
X46821500Y-60418500D01*
X110823500Y-154916000D02*
X48821500Y-154917500D01*
X112823500Y-60420000D02*
X112823500Y-152916000D01*
X48821500Y-58418500D02*
X110823500Y-58420000D01*
D10*
X55618000Y-63026857D02*
X55618000Y-61826857D01*
X55927523Y-61826857D01*
X56113238Y-61884000D01*
X56237047Y-61998285D01*
X56298952Y-62112571D01*
X56360857Y-62341142D01*
X56360857Y-62512571D01*
X56298952Y-62741142D01*
X56237047Y-62855428D01*
X56113238Y-62969714D01*
X55927523Y-63026857D01*
X55618000Y-63026857D01*
X57165619Y-61826857D02*
X57413238Y-61826857D01*
X57537047Y-61884000D01*
X57660857Y-61998285D01*
X57722761Y-62226857D01*
X57722761Y-62626857D01*
X57660857Y-62855428D01*
X57537047Y-62969714D01*
X57413238Y-63026857D01*
X57165619Y-63026857D01*
X57041809Y-62969714D01*
X56918000Y-62855428D01*
X56856095Y-62626857D01*
X56856095Y-62226857D01*
X56918000Y-61998285D01*
X57041809Y-61884000D01*
X57165619Y-61826857D01*
X58279904Y-63026857D02*
X58279904Y-61826857D01*
X59022761Y-63026857D01*
X59022761Y-61826857D01*
X59703714Y-61826857D02*
X59579904Y-62055428D01*
X60075142Y-61826857D02*
X60818000Y-61826857D01*
X60446571Y-63026857D02*
X60446571Y-61826857D01*
X62241809Y-63026857D02*
X62241809Y-61826857D01*
X62737047Y-61826857D01*
X62860857Y-61884000D01*
X62922761Y-61941142D01*
X62984666Y-62055428D01*
X62984666Y-62226857D01*
X62922761Y-62341142D01*
X62860857Y-62398285D01*
X62737047Y-62455428D01*
X62241809Y-62455428D01*
X63479904Y-62684000D02*
X64098952Y-62684000D01*
X63356095Y-63026857D02*
X63789428Y-61826857D01*
X64222761Y-63026857D01*
X64656095Y-63026857D02*
X64656095Y-61826857D01*
X65398952Y-63026857D01*
X65398952Y-61826857D01*
X66018000Y-63026857D02*
X66018000Y-61826857D01*
X67379904Y-62912571D02*
X67318000Y-62969714D01*
X67132285Y-63026857D01*
X67008476Y-63026857D01*
X66822761Y-62969714D01*
X66698952Y-62855428D01*
X66637047Y-62741142D01*
X66575142Y-62512571D01*
X66575142Y-62341142D01*
X66637047Y-62112571D01*
X66698952Y-61998285D01*
X66822761Y-61884000D01*
X67008476Y-61826857D01*
X67132285Y-61826857D01*
X67318000Y-61884000D01*
X67379904Y-61941142D01*
D11*
X48821500Y-58418500D02*
G75*
G03*
X46821500Y-60418500I0J-2000000D01*
G01*
X46821500Y-152917500D02*
G75*
G03*
X48821500Y-154917500I2000000J0D01*
G01*
X110823500Y-154916000D02*
G75*
G03*
X112823500Y-152916000I0J2000000D01*
G01*
X112823500Y-60420000D02*
G75*
G03*
X110823500Y-58420000I-2000000J0D01*
G01*
X46821500Y-152917500D02*
X46821500Y-60418500D01*
X110823500Y-154916000D02*
X48821500Y-154917500D01*
X112823500Y-60420000D02*
X112823500Y-152916000D01*
X48821500Y-58418500D02*
X110823500Y-58420000D01*
D12*
X81094500Y-66996500D03*
X82794500Y-66996500D03*
X81944500Y-66996500D03*
X80244500Y-66996500D03*
X79394500Y-66996500D03*
X78544500Y-66996500D03*
X77694500Y-66996500D03*
X76844500Y-66996500D03*
X82794500Y-65544500D03*
X81939500Y-65544500D03*
X81089500Y-65544500D03*
X80239500Y-65544500D03*
X79389500Y-65544500D03*
X78539500Y-65544500D03*
X77689500Y-65544500D03*
X76839500Y-65544500D03*
D13*
X84144500Y-65953000D03*
X75494500Y-65953000D03*
D14*
X84144500Y-62573000D03*
X75494500Y-62573000D03*
D15*
X66205100Y-76644500D03*
X63665100Y-70294500D03*
D16*
X61125100Y-74104500D03*
D17*
X61125100Y-69024500D03*
X61125100Y-79184500D03*
D18*
X109385100Y-124310800D03*
X109385100Y-119430800D03*
X79883000Y-116703500D03*
X79883000Y-111823500D03*
X79819500Y-93399000D03*
X79819500Y-88519000D03*
D19*
X86995000Y-143505000D03*
X86995000Y-140965000D03*
X86995000Y-138425000D03*
X86995000Y-135885000D03*
X86995000Y-133345000D03*
X86995000Y-130805000D03*
X86995000Y-128265000D03*
X86995000Y-125725000D03*
X86995000Y-123185000D03*
X86995000Y-120645000D03*
X86995000Y-118105000D03*
X86995000Y-115565000D03*
X86995000Y-113025000D03*
X86995000Y-110485000D03*
X102235000Y-110485000D03*
X102235000Y-113025000D03*
X102235000Y-115565000D03*
X102235000Y-118105000D03*
X102235000Y-120645000D03*
X102235000Y-123185000D03*
X102235000Y-125725000D03*
X102235000Y-128265000D03*
X102235000Y-130805000D03*
X102235000Y-133345000D03*
X102235000Y-135885000D03*
X102235000Y-138425000D03*
X102235000Y-140965000D03*
G36*
G01*
X102997000Y-144318000D02*
X101473000Y-144318000D01*
G75*
G02*
X101422000Y-144267000I0J51000D01*
G01*
X101422000Y-142743000D01*
G75*
G02*
X101473000Y-142692000I51000J0D01*
G01*
X102997000Y-142692000D01*
G75*
G02*
X103048000Y-142743000I0J-51000D01*
G01*
X103048000Y-144267000D01*
G75*
G02*
X102997000Y-144318000I-51000J0D01*
G01*
G37*
G36*
G01*
X85259500Y-86009500D02*
X85259500Y-85459500D01*
G75*
G02*
X85310500Y-85408500I51000J0D01*
G01*
X86910500Y-85408500D01*
G75*
G02*
X86961500Y-85459500I0J-51000D01*
G01*
X86961500Y-86009500D01*
G75*
G02*
X86910500Y-86060500I-51000J0D01*
G01*
X85310500Y-86060500D01*
G75*
G02*
X85259500Y-86009500I0J51000D01*
G01*
G37*
G36*
G01*
X85259500Y-86809500D02*
X85259500Y-86259500D01*
G75*
G02*
X85310500Y-86208500I51000J0D01*
G01*
X86910500Y-86208500D01*
G75*
G02*
X86961500Y-86259500I0J-51000D01*
G01*
X86961500Y-86809500D01*
G75*
G02*
X86910500Y-86860500I-51000J0D01*
G01*
X85310500Y-86860500D01*
G75*
G02*
X85259500Y-86809500I0J51000D01*
G01*
G37*
G36*
G01*
X85259500Y-87609500D02*
X85259500Y-87059500D01*
G75*
G02*
X85310500Y-87008500I51000J0D01*
G01*
X86910500Y-87008500D01*
G75*
G02*
X86961500Y-87059500I0J-51000D01*
G01*
X86961500Y-87609500D01*
G75*
G02*
X86910500Y-87660500I-51000J0D01*
G01*
X85310500Y-87660500D01*
G75*
G02*
X85259500Y-87609500I0J51000D01*
G01*
G37*
G36*
G01*
X85259500Y-88409500D02*
X85259500Y-87859500D01*
G75*
G02*
X85310500Y-87808500I51000J0D01*
G01*
X86910500Y-87808500D01*
G75*
G02*
X86961500Y-87859500I0J-51000D01*
G01*
X86961500Y-88409500D01*
G75*
G02*
X86910500Y-88460500I-51000J0D01*
G01*
X85310500Y-88460500D01*
G75*
G02*
X85259500Y-88409500I0J51000D01*
G01*
G37*
G36*
G01*
X85259500Y-89209500D02*
X85259500Y-88659500D01*
G75*
G02*
X85310500Y-88608500I51000J0D01*
G01*
X86910500Y-88608500D01*
G75*
G02*
X86961500Y-88659500I0J-51000D01*
G01*
X86961500Y-89209500D01*
G75*
G02*
X86910500Y-89260500I-51000J0D01*
G01*
X85310500Y-89260500D01*
G75*
G02*
X85259500Y-89209500I0J51000D01*
G01*
G37*
G36*
G01*
X85259500Y-90009500D02*
X85259500Y-89459500D01*
G75*
G02*
X85310500Y-89408500I51000J0D01*
G01*
X86910500Y-89408500D01*
G75*
G02*
X86961500Y-89459500I0J-51000D01*
G01*
X86961500Y-90009500D01*
G75*
G02*
X86910500Y-90060500I-51000J0D01*
G01*
X85310500Y-90060500D01*
G75*
G02*
X85259500Y-90009500I0J51000D01*
G01*
G37*
G36*
G01*
X85259500Y-90809500D02*
X85259500Y-90259500D01*
G75*
G02*
X85310500Y-90208500I51000J0D01*
G01*
X86910500Y-90208500D01*
G75*
G02*
X86961500Y-90259500I0J-51000D01*
G01*
X86961500Y-90809500D01*
G75*
G02*
X86910500Y-90860500I-51000J0D01*
G01*
X85310500Y-90860500D01*
G75*
G02*
X85259500Y-90809500I0J51000D01*
G01*
G37*
G36*
G01*
X85259500Y-91609500D02*
X85259500Y-91059500D01*
G75*
G02*
X85310500Y-91008500I51000J0D01*
G01*
X86910500Y-91008500D01*
G75*
G02*
X86961500Y-91059500I0J-51000D01*
G01*
X86961500Y-91609500D01*
G75*
G02*
X86910500Y-91660500I-51000J0D01*
G01*
X85310500Y-91660500D01*
G75*
G02*
X85259500Y-91609500I0J51000D01*
G01*
G37*
G36*
G01*
X87835500Y-93635500D02*
X87285500Y-93635500D01*
G75*
G02*
X87234500Y-93584500I0J51000D01*
G01*
X87234500Y-91984500D01*
G75*
G02*
X87285500Y-91933500I51000J0D01*
G01*
X87835500Y-91933500D01*
G75*
G02*
X87886500Y-91984500I0J-51000D01*
G01*
X87886500Y-93584500D01*
G75*
G02*
X87835500Y-93635500I-51000J0D01*
G01*
G37*
G36*
G01*
X88635500Y-93635500D02*
X88085500Y-93635500D01*
G75*
G02*
X88034500Y-93584500I0J51000D01*
G01*
X88034500Y-91984500D01*
G75*
G02*
X88085500Y-91933500I51000J0D01*
G01*
X88635500Y-91933500D01*
G75*
G02*
X88686500Y-91984500I0J-51000D01*
G01*
X88686500Y-93584500D01*
G75*
G02*
X88635500Y-93635500I-51000J0D01*
G01*
G37*
G36*
G01*
X89435500Y-93635500D02*
X88885500Y-93635500D01*
G75*
G02*
X88834500Y-93584500I0J51000D01*
G01*
X88834500Y-91984500D01*
G75*
G02*
X88885500Y-91933500I51000J0D01*
G01*
X89435500Y-91933500D01*
G75*
G02*
X89486500Y-91984500I0J-51000D01*
G01*
X89486500Y-93584500D01*
G75*
G02*
X89435500Y-93635500I-51000J0D01*
G01*
G37*
G36*
G01*
X90235500Y-93635500D02*
X89685500Y-93635500D01*
G75*
G02*
X89634500Y-93584500I0J51000D01*
G01*
X89634500Y-91984500D01*
G75*
G02*
X89685500Y-91933500I51000J0D01*
G01*
X90235500Y-91933500D01*
G75*
G02*
X90286500Y-91984500I0J-51000D01*
G01*
X90286500Y-93584500D01*
G75*
G02*
X90235500Y-93635500I-51000J0D01*
G01*
G37*
G36*
G01*
X91035500Y-93635500D02*
X90485500Y-93635500D01*
G75*
G02*
X90434500Y-93584500I0J51000D01*
G01*
X90434500Y-91984500D01*
G75*
G02*
X90485500Y-91933500I51000J0D01*
G01*
X91035500Y-91933500D01*
G75*
G02*
X91086500Y-91984500I0J-51000D01*
G01*
X91086500Y-93584500D01*
G75*
G02*
X91035500Y-93635500I-51000J0D01*
G01*
G37*
G36*
G01*
X91835500Y-93635500D02*
X91285500Y-93635500D01*
G75*
G02*
X91234500Y-93584500I0J51000D01*
G01*
X91234500Y-91984500D01*
G75*
G02*
X91285500Y-91933500I51000J0D01*
G01*
X91835500Y-91933500D01*
G75*
G02*
X91886500Y-91984500I0J-51000D01*
G01*
X91886500Y-93584500D01*
G75*
G02*
X91835500Y-93635500I-51000J0D01*
G01*
G37*
G36*
G01*
X92635500Y-93635500D02*
X92085500Y-93635500D01*
G75*
G02*
X92034500Y-93584500I0J51000D01*
G01*
X92034500Y-91984500D01*
G75*
G02*
X92085500Y-91933500I51000J0D01*
G01*
X92635500Y-91933500D01*
G75*
G02*
X92686500Y-91984500I0J-51000D01*
G01*
X92686500Y-93584500D01*
G75*
G02*
X92635500Y-93635500I-51000J0D01*
G01*
G37*
G36*
G01*
X93435500Y-93635500D02*
X92885500Y-93635500D01*
G75*
G02*
X92834500Y-93584500I0J51000D01*
G01*
X92834500Y-91984500D01*
G75*
G02*
X92885500Y-91933500I51000J0D01*
G01*
X93435500Y-91933500D01*
G75*
G02*
X93486500Y-91984500I0J-51000D01*
G01*
X93486500Y-93584500D01*
G75*
G02*
X93435500Y-93635500I-51000J0D01*
G01*
G37*
G36*
G01*
X93759500Y-91609500D02*
X93759500Y-91059500D01*
G75*
G02*
X93810500Y-91008500I51000J0D01*
G01*
X95410500Y-91008500D01*
G75*
G02*
X95461500Y-91059500I0J-51000D01*
G01*
X95461500Y-91609500D01*
G75*
G02*
X95410500Y-91660500I-51000J0D01*
G01*
X93810500Y-91660500D01*
G75*
G02*
X93759500Y-91609500I0J51000D01*
G01*
G37*
G36*
G01*
X93759500Y-90809500D02*
X93759500Y-90259500D01*
G75*
G02*
X93810500Y-90208500I51000J0D01*
G01*
X95410500Y-90208500D01*
G75*
G02*
X95461500Y-90259500I0J-51000D01*
G01*
X95461500Y-90809500D01*
G75*
G02*
X95410500Y-90860500I-51000J0D01*
G01*
X93810500Y-90860500D01*
G75*
G02*
X93759500Y-90809500I0J51000D01*
G01*
G37*
G36*
G01*
X93759500Y-90009500D02*
X93759500Y-89459500D01*
G75*
G02*
X93810500Y-89408500I51000J0D01*
G01*
X95410500Y-89408500D01*
G75*
G02*
X95461500Y-89459500I0J-51000D01*
G01*
X95461500Y-90009500D01*
G75*
G02*
X95410500Y-90060500I-51000J0D01*
G01*
X93810500Y-90060500D01*
G75*
G02*
X93759500Y-90009500I0J51000D01*
G01*
G37*
G36*
G01*
X93759500Y-89209500D02*
X93759500Y-88659500D01*
G75*
G02*
X93810500Y-88608500I51000J0D01*
G01*
X95410500Y-88608500D01*
G75*
G02*
X95461500Y-88659500I0J-51000D01*
G01*
X95461500Y-89209500D01*
G75*
G02*
X95410500Y-89260500I-51000J0D01*
G01*
X93810500Y-89260500D01*
G75*
G02*
X93759500Y-89209500I0J51000D01*
G01*
G37*
G36*
G01*
X93759500Y-88409500D02*
X93759500Y-87859500D01*
G75*
G02*
X93810500Y-87808500I51000J0D01*
G01*
X95410500Y-87808500D01*
G75*
G02*
X95461500Y-87859500I0J-51000D01*
G01*
X95461500Y-88409500D01*
G75*
G02*
X95410500Y-88460500I-51000J0D01*
G01*
X93810500Y-88460500D01*
G75*
G02*
X93759500Y-88409500I0J51000D01*
G01*
G37*
G36*
G01*
X93759500Y-87609500D02*
X93759500Y-87059500D01*
G75*
G02*
X93810500Y-87008500I51000J0D01*
G01*
X95410500Y-87008500D01*
G75*
G02*
X95461500Y-87059500I0J-51000D01*
G01*
X95461500Y-87609500D01*
G75*
G02*
X95410500Y-87660500I-51000J0D01*
G01*
X93810500Y-87660500D01*
G75*
G02*
X93759500Y-87609500I0J51000D01*
G01*
G37*
G36*
G01*
X93759500Y-86809500D02*
X93759500Y-86259500D01*
G75*
G02*
X93810500Y-86208500I51000J0D01*
G01*
X95410500Y-86208500D01*
G75*
G02*
X95461500Y-86259500I0J-51000D01*
G01*
X95461500Y-86809500D01*
G75*
G02*
X95410500Y-86860500I-51000J0D01*
G01*
X93810500Y-86860500D01*
G75*
G02*
X93759500Y-86809500I0J51000D01*
G01*
G37*
G36*
G01*
X93759500Y-86009500D02*
X93759500Y-85459500D01*
G75*
G02*
X93810500Y-85408500I51000J0D01*
G01*
X95410500Y-85408500D01*
G75*
G02*
X95461500Y-85459500I0J-51000D01*
G01*
X95461500Y-86009500D01*
G75*
G02*
X95410500Y-86060500I-51000J0D01*
G01*
X93810500Y-86060500D01*
G75*
G02*
X93759500Y-86009500I0J51000D01*
G01*
G37*
G36*
G01*
X93435500Y-85135500D02*
X92885500Y-85135500D01*
G75*
G02*
X92834500Y-85084500I0J51000D01*
G01*
X92834500Y-83484500D01*
G75*
G02*
X92885500Y-83433500I51000J0D01*
G01*
X93435500Y-83433500D01*
G75*
G02*
X93486500Y-83484500I0J-51000D01*
G01*
X93486500Y-85084500D01*
G75*
G02*
X93435500Y-85135500I-51000J0D01*
G01*
G37*
G36*
G01*
X92635500Y-85135500D02*
X92085500Y-85135500D01*
G75*
G02*
X92034500Y-85084500I0J51000D01*
G01*
X92034500Y-83484500D01*
G75*
G02*
X92085500Y-83433500I51000J0D01*
G01*
X92635500Y-83433500D01*
G75*
G02*
X92686500Y-83484500I0J-51000D01*
G01*
X92686500Y-85084500D01*
G75*
G02*
X92635500Y-85135500I-51000J0D01*
G01*
G37*
G36*
G01*
X91835500Y-85135500D02*
X91285500Y-85135500D01*
G75*
G02*
X91234500Y-85084500I0J51000D01*
G01*
X91234500Y-83484500D01*
G75*
G02*
X91285500Y-83433500I51000J0D01*
G01*
X91835500Y-83433500D01*
G75*
G02*
X91886500Y-83484500I0J-51000D01*
G01*
X91886500Y-85084500D01*
G75*
G02*
X91835500Y-85135500I-51000J0D01*
G01*
G37*
G36*
G01*
X91035500Y-85135500D02*
X90485500Y-85135500D01*
G75*
G02*
X90434500Y-85084500I0J51000D01*
G01*
X90434500Y-83484500D01*
G75*
G02*
X90485500Y-83433500I51000J0D01*
G01*
X91035500Y-83433500D01*
G75*
G02*
X91086500Y-83484500I0J-51000D01*
G01*
X91086500Y-85084500D01*
G75*
G02*
X91035500Y-85135500I-51000J0D01*
G01*
G37*
G36*
G01*
X90235500Y-85135500D02*
X89685500Y-85135500D01*
G75*
G02*
X89634500Y-85084500I0J51000D01*
G01*
X89634500Y-83484500D01*
G75*
G02*
X89685500Y-83433500I51000J0D01*
G01*
X90235500Y-83433500D01*
G75*
G02*
X90286500Y-83484500I0J-51000D01*
G01*
X90286500Y-85084500D01*
G75*
G02*
X90235500Y-85135500I-51000J0D01*
G01*
G37*
G36*
G01*
X89435500Y-85135500D02*
X88885500Y-85135500D01*
G75*
G02*
X88834500Y-85084500I0J51000D01*
G01*
X88834500Y-83484500D01*
G75*
G02*
X88885500Y-83433500I51000J0D01*
G01*
X89435500Y-83433500D01*
G75*
G02*
X89486500Y-83484500I0J-51000D01*
G01*
X89486500Y-85084500D01*
G75*
G02*
X89435500Y-85135500I-51000J0D01*
G01*
G37*
G36*
G01*
X88635500Y-85135500D02*
X88085500Y-85135500D01*
G75*
G02*
X88034500Y-85084500I0J51000D01*
G01*
X88034500Y-83484500D01*
G75*
G02*
X88085500Y-83433500I51000J0D01*
G01*
X88635500Y-83433500D01*
G75*
G02*
X88686500Y-83484500I0J-51000D01*
G01*
X88686500Y-85084500D01*
G75*
G02*
X88635500Y-85135500I-51000J0D01*
G01*
G37*
G36*
G01*
X87835500Y-85135500D02*
X87285500Y-85135500D01*
G75*
G02*
X87234500Y-85084500I0J51000D01*
G01*
X87234500Y-83484500D01*
G75*
G02*
X87285500Y-83433500I51000J0D01*
G01*
X87835500Y-83433500D01*
G75*
G02*
X87886500Y-83484500I0J-51000D01*
G01*
X87886500Y-85084500D01*
G75*
G02*
X87835500Y-85135500I-51000J0D01*
G01*
G37*
D17*
X109029500Y-92202000D03*
X109029500Y-89662000D03*
X109029500Y-87122000D03*
X109029500Y-84582000D03*
X109029500Y-82042000D03*
X106489500Y-92202000D03*
X106489500Y-89662000D03*
X106489500Y-87122000D03*
X106489500Y-84582000D03*
G36*
G01*
X105588500Y-82678000D02*
X105588500Y-81406000D01*
G75*
G02*
X105853500Y-81141000I265000J0D01*
G01*
X107125500Y-81141000D01*
G75*
G02*
X107390500Y-81406000I0J-265000D01*
G01*
X107390500Y-82678000D01*
G75*
G02*
X107125500Y-82943000I-265000J0D01*
G01*
X105853500Y-82943000D01*
G75*
G02*
X105588500Y-82678000I0J265000D01*
G01*
G37*
G36*
G01*
X90419500Y-66396500D02*
X89219500Y-66396500D01*
G75*
G02*
X89168500Y-66345500I0J51000D01*
G01*
X89168500Y-65445500D01*
G75*
G02*
X89219500Y-65394500I51000J0D01*
G01*
X90419500Y-65394500D01*
G75*
G02*
X90470500Y-65445500I0J-51000D01*
G01*
X90470500Y-66345500D01*
G75*
G02*
X90419500Y-66396500I-51000J0D01*
G01*
G37*
G36*
G01*
X90419500Y-69696500D02*
X89219500Y-69696500D01*
G75*
G02*
X89168500Y-69645500I0J51000D01*
G01*
X89168500Y-68745500D01*
G75*
G02*
X89219500Y-68694500I51000J0D01*
G01*
X90419500Y-68694500D01*
G75*
G02*
X90470500Y-68745500I0J-51000D01*
G01*
X90470500Y-69645500D01*
G75*
G02*
X90419500Y-69696500I-51000J0D01*
G01*
G37*
G36*
G01*
X88019500Y-66396500D02*
X86819500Y-66396500D01*
G75*
G02*
X86768500Y-66345500I0J51000D01*
G01*
X86768500Y-65445500D01*
G75*
G02*
X86819500Y-65394500I51000J0D01*
G01*
X88019500Y-65394500D01*
G75*
G02*
X88070500Y-65445500I0J-51000D01*
G01*
X88070500Y-66345500D01*
G75*
G02*
X88019500Y-66396500I-51000J0D01*
G01*
G37*
G36*
G01*
X88019500Y-69696500D02*
X86819500Y-69696500D01*
G75*
G02*
X86768500Y-69645500I0J51000D01*
G01*
X86768500Y-68745500D01*
G75*
G02*
X86819500Y-68694500I51000J0D01*
G01*
X88019500Y-68694500D01*
G75*
G02*
X88070500Y-68745500I0J-51000D01*
G01*
X88070500Y-69645500D01*
G75*
G02*
X88019500Y-69696500I-51000J0D01*
G01*
G37*
D20*
X97028000Y-61531500D03*
X102108000Y-69151500D03*
X99568000Y-61531500D03*
X99568000Y-69151500D03*
X102108000Y-61531500D03*
G36*
G01*
X97828000Y-70002500D02*
X96228000Y-70002500D01*
G75*
G02*
X96177000Y-69951500I0J51000D01*
G01*
X96177000Y-68351500D01*
G75*
G02*
X96228000Y-68300500I51000J0D01*
G01*
X97828000Y-68300500D01*
G75*
G02*
X97879000Y-68351500I0J-51000D01*
G01*
X97879000Y-69951500D01*
G75*
G02*
X97828000Y-70002500I-51000J0D01*
G01*
G37*
G36*
G01*
X71643375Y-72294500D02*
X72595625Y-72294500D01*
G75*
G02*
X72870500Y-72569375I0J-274875D01*
G01*
X72870500Y-73146625D01*
G75*
G02*
X72595625Y-73421500I-274875J0D01*
G01*
X71643375Y-73421500D01*
G75*
G02*
X71368500Y-73146625I0J274875D01*
G01*
X71368500Y-72569375D01*
G75*
G02*
X71643375Y-72294500I274875J0D01*
G01*
G37*
G36*
G01*
X71643375Y-70469500D02*
X72595625Y-70469500D01*
G75*
G02*
X72870500Y-70744375I0J-274875D01*
G01*
X72870500Y-71321625D01*
G75*
G02*
X72595625Y-71596500I-274875J0D01*
G01*
X71643375Y-71596500D01*
G75*
G02*
X71368500Y-71321625I0J274875D01*
G01*
X71368500Y-70744375D01*
G75*
G02*
X71643375Y-70469500I274875J0D01*
G01*
G37*
D21*
X108826000Y-150923500D03*
X50826000Y-150923500D03*
X108826000Y-62423500D03*
X50826000Y-62423500D03*
G36*
G01*
X73042836Y-61531500D02*
X70086164Y-61531500D01*
G75*
G02*
X69813500Y-61258836I0J272664D01*
G01*
X69813500Y-60577164D01*
G75*
G02*
X70086164Y-60304500I272664J0D01*
G01*
X73042836Y-60304500D01*
G75*
G02*
X73315500Y-60577164I0J-272664D01*
G01*
X73315500Y-61258836D01*
G75*
G02*
X73042836Y-61531500I-272664J0D01*
G01*
G37*
G36*
G01*
X73042836Y-65806500D02*
X70086164Y-65806500D01*
G75*
G02*
X69813500Y-65533836I0J272664D01*
G01*
X69813500Y-64852164D01*
G75*
G02*
X70086164Y-64579500I272664J0D01*
G01*
X73042836Y-64579500D01*
G75*
G02*
X73315500Y-64852164I0J-272664D01*
G01*
X73315500Y-65533836D01*
G75*
G02*
X73042836Y-65806500I-272664J0D01*
G01*
G37*
G36*
G01*
X90195625Y-71596500D02*
X89243375Y-71596500D01*
G75*
G02*
X88968500Y-71321625I0J274875D01*
G01*
X88968500Y-70744375D01*
G75*
G02*
X89243375Y-70469500I274875J0D01*
G01*
X90195625Y-70469500D01*
G75*
G02*
X90470500Y-70744375I0J-274875D01*
G01*
X90470500Y-71321625D01*
G75*
G02*
X90195625Y-71596500I-274875J0D01*
G01*
G37*
G36*
G01*
X90195625Y-73421500D02*
X89243375Y-73421500D01*
G75*
G02*
X88968500Y-73146625I0J274875D01*
G01*
X88968500Y-72569375D01*
G75*
G02*
X89243375Y-72294500I274875J0D01*
G01*
X90195625Y-72294500D01*
G75*
G02*
X90470500Y-72569375I0J-274875D01*
G01*
X90470500Y-73146625D01*
G75*
G02*
X90195625Y-73421500I-274875J0D01*
G01*
G37*
G36*
G01*
X87995625Y-71596500D02*
X87043375Y-71596500D01*
G75*
G02*
X86768500Y-71321625I0J274875D01*
G01*
X86768500Y-70744375D01*
G75*
G02*
X87043375Y-70469500I274875J0D01*
G01*
X87995625Y-70469500D01*
G75*
G02*
X88270500Y-70744375I0J-274875D01*
G01*
X88270500Y-71321625D01*
G75*
G02*
X87995625Y-71596500I-274875J0D01*
G01*
G37*
G36*
G01*
X87995625Y-73421500D02*
X87043375Y-73421500D01*
G75*
G02*
X86768500Y-73146625I0J274875D01*
G01*
X86768500Y-72569375D01*
G75*
G02*
X87043375Y-72294500I274875J0D01*
G01*
X87995625Y-72294500D01*
G75*
G02*
X88270500Y-72569375I0J-274875D01*
G01*
X88270500Y-73146625D01*
G75*
G02*
X87995625Y-73421500I-274875J0D01*
G01*
G37*
G36*
G01*
X85795625Y-71596500D02*
X84843375Y-71596500D01*
G75*
G02*
X84568500Y-71321625I0J274875D01*
G01*
X84568500Y-70744375D01*
G75*
G02*
X84843375Y-70469500I274875J0D01*
G01*
X85795625Y-70469500D01*
G75*
G02*
X86070500Y-70744375I0J-274875D01*
G01*
X86070500Y-71321625D01*
G75*
G02*
X85795625Y-71596500I-274875J0D01*
G01*
G37*
G36*
G01*
X85795625Y-73421500D02*
X84843375Y-73421500D01*
G75*
G02*
X84568500Y-73146625I0J274875D01*
G01*
X84568500Y-72569375D01*
G75*
G02*
X84843375Y-72294500I274875J0D01*
G01*
X85795625Y-72294500D01*
G75*
G02*
X86070500Y-72569375I0J-274875D01*
G01*
X86070500Y-73146625D01*
G75*
G02*
X85795625Y-73421500I-274875J0D01*
G01*
G37*
G36*
G01*
X82643375Y-72294500D02*
X83595625Y-72294500D01*
G75*
G02*
X83870500Y-72569375I0J-274875D01*
G01*
X83870500Y-73146625D01*
G75*
G02*
X83595625Y-73421500I-274875J0D01*
G01*
X82643375Y-73421500D01*
G75*
G02*
X82368500Y-73146625I0J274875D01*
G01*
X82368500Y-72569375D01*
G75*
G02*
X82643375Y-72294500I274875J0D01*
G01*
G37*
G36*
G01*
X82643375Y-70469500D02*
X83595625Y-70469500D01*
G75*
G02*
X83870500Y-70744375I0J-274875D01*
G01*
X83870500Y-71321625D01*
G75*
G02*
X83595625Y-71596500I-274875J0D01*
G01*
X82643375Y-71596500D01*
G75*
G02*
X82368500Y-71321625I0J274875D01*
G01*
X82368500Y-70744375D01*
G75*
G02*
X82643375Y-70469500I274875J0D01*
G01*
G37*
G36*
G01*
X76043375Y-72294500D02*
X76995625Y-72294500D01*
G75*
G02*
X77270500Y-72569375I0J-274875D01*
G01*
X77270500Y-73146625D01*
G75*
G02*
X76995625Y-73421500I-274875J0D01*
G01*
X76043375Y-73421500D01*
G75*
G02*
X75768500Y-73146625I0J274875D01*
G01*
X75768500Y-72569375D01*
G75*
G02*
X76043375Y-72294500I274875J0D01*
G01*
G37*
G36*
G01*
X76043375Y-70469500D02*
X76995625Y-70469500D01*
G75*
G02*
X77270500Y-70744375I0J-274875D01*
G01*
X77270500Y-71321625D01*
G75*
G02*
X76995625Y-71596500I-274875J0D01*
G01*
X76043375Y-71596500D01*
G75*
G02*
X75768500Y-71321625I0J274875D01*
G01*
X75768500Y-70744375D01*
G75*
G02*
X76043375Y-70469500I274875J0D01*
G01*
G37*
G36*
G01*
X73843375Y-72294500D02*
X74795625Y-72294500D01*
G75*
G02*
X75070500Y-72569375I0J-274875D01*
G01*
X75070500Y-73146625D01*
G75*
G02*
X74795625Y-73421500I-274875J0D01*
G01*
X73843375Y-73421500D01*
G75*
G02*
X73568500Y-73146625I0J274875D01*
G01*
X73568500Y-72569375D01*
G75*
G02*
X73843375Y-72294500I274875J0D01*
G01*
G37*
G36*
G01*
X73843375Y-70469500D02*
X74795625Y-70469500D01*
G75*
G02*
X75070500Y-70744375I0J-274875D01*
G01*
X75070500Y-71321625D01*
G75*
G02*
X74795625Y-71596500I-274875J0D01*
G01*
X73843375Y-71596500D01*
G75*
G02*
X73568500Y-71321625I0J274875D01*
G01*
X73568500Y-70744375D01*
G75*
G02*
X73843375Y-70469500I274875J0D01*
G01*
G37*
G36*
G01*
X81401250Y-71546500D02*
X80437750Y-71546500D01*
G75*
G02*
X80168500Y-71277250I0J269250D01*
G01*
X80168500Y-70738750D01*
G75*
G02*
X80437750Y-70469500I269250J0D01*
G01*
X81401250Y-70469500D01*
G75*
G02*
X81670500Y-70738750I0J-269250D01*
G01*
X81670500Y-71277250D01*
G75*
G02*
X81401250Y-71546500I-269250J0D01*
G01*
G37*
G36*
G01*
X81401250Y-73421500D02*
X80437750Y-73421500D01*
G75*
G02*
X80168500Y-73152250I0J269250D01*
G01*
X80168500Y-72613750D01*
G75*
G02*
X80437750Y-72344500I269250J0D01*
G01*
X81401250Y-72344500D01*
G75*
G02*
X81670500Y-72613750I0J-269250D01*
G01*
X81670500Y-73152250D01*
G75*
G02*
X81401250Y-73421500I-269250J0D01*
G01*
G37*
G36*
G01*
X79201250Y-71546500D02*
X78237750Y-71546500D01*
G75*
G02*
X77968500Y-71277250I0J269250D01*
G01*
X77968500Y-70738750D01*
G75*
G02*
X78237750Y-70469500I269250J0D01*
G01*
X79201250Y-70469500D01*
G75*
G02*
X79470500Y-70738750I0J-269250D01*
G01*
X79470500Y-71277250D01*
G75*
G02*
X79201250Y-71546500I-269250J0D01*
G01*
G37*
G36*
G01*
X79201250Y-73421500D02*
X78237750Y-73421500D01*
G75*
G02*
X77968500Y-73152250I0J269250D01*
G01*
X77968500Y-72613750D01*
G75*
G02*
X78237750Y-72344500I269250J0D01*
G01*
X79201250Y-72344500D01*
G75*
G02*
X79470500Y-72613750I0J-269250D01*
G01*
X79470500Y-73152250D01*
G75*
G02*
X79201250Y-73421500I-269250J0D01*
G01*
G37*
G36*
G01*
X84257000Y-86802000D02*
X83256000Y-86802000D01*
G75*
G02*
X82980500Y-86526500I0J275500D01*
G01*
X82980500Y-85975500D01*
G75*
G02*
X83256000Y-85700000I275500J0D01*
G01*
X84257000Y-85700000D01*
G75*
G02*
X84532500Y-85975500I0J-275500D01*
G01*
X84532500Y-86526500D01*
G75*
G02*
X84257000Y-86802000I-275500J0D01*
G01*
G37*
G36*
G01*
X84257000Y-88702000D02*
X83256000Y-88702000D01*
G75*
G02*
X82980500Y-88426500I0J275500D01*
G01*
X82980500Y-87875500D01*
G75*
G02*
X83256000Y-87600000I275500J0D01*
G01*
X84257000Y-87600000D01*
G75*
G02*
X84532500Y-87875500I0J-275500D01*
G01*
X84532500Y-88426500D01*
G75*
G02*
X84257000Y-88702000I-275500J0D01*
G01*
G37*
G36*
G01*
X80282000Y-98862000D02*
X80282000Y-97861000D01*
G75*
G02*
X80557500Y-97585500I275500J0D01*
G01*
X81108500Y-97585500D01*
G75*
G02*
X81384000Y-97861000I0J-275500D01*
G01*
X81384000Y-98862000D01*
G75*
G02*
X81108500Y-99137500I-275500J0D01*
G01*
X80557500Y-99137500D01*
G75*
G02*
X80282000Y-98862000I0J275500D01*
G01*
G37*
G36*
G01*
X78382000Y-98862000D02*
X78382000Y-97861000D01*
G75*
G02*
X78657500Y-97585500I275500J0D01*
G01*
X79208500Y-97585500D01*
G75*
G02*
X79484000Y-97861000I0J-275500D01*
G01*
X79484000Y-98862000D01*
G75*
G02*
X79208500Y-99137500I-275500J0D01*
G01*
X78657500Y-99137500D01*
G75*
G02*
X78382000Y-98862000I0J275500D01*
G01*
G37*
G36*
G01*
X79420500Y-83129000D02*
X79420500Y-84130000D01*
G75*
G02*
X79145000Y-84405500I-275500J0D01*
G01*
X78594000Y-84405500D01*
G75*
G02*
X78318500Y-84130000I0J275500D01*
G01*
X78318500Y-83129000D01*
G75*
G02*
X78594000Y-82853500I275500J0D01*
G01*
X79145000Y-82853500D01*
G75*
G02*
X79420500Y-83129000I0J-275500D01*
G01*
G37*
G36*
G01*
X81320500Y-83129000D02*
X81320500Y-84130000D01*
G75*
G02*
X81045000Y-84405500I-275500J0D01*
G01*
X80494000Y-84405500D01*
G75*
G02*
X80218500Y-84130000I0J275500D01*
G01*
X80218500Y-83129000D01*
G75*
G02*
X80494000Y-82853500I275500J0D01*
G01*
X81045000Y-82853500D01*
G75*
G02*
X81320500Y-83129000I0J-275500D01*
G01*
G37*
G36*
G01*
X88020000Y-62696500D02*
X87019000Y-62696500D01*
G75*
G02*
X86743500Y-62421000I0J275500D01*
G01*
X86743500Y-61870000D01*
G75*
G02*
X87019000Y-61594500I275500J0D01*
G01*
X88020000Y-61594500D01*
G75*
G02*
X88295500Y-61870000I0J-275500D01*
G01*
X88295500Y-62421000D01*
G75*
G02*
X88020000Y-62696500I-275500J0D01*
G01*
G37*
G36*
G01*
X88020000Y-64596500D02*
X87019000Y-64596500D01*
G75*
G02*
X86743500Y-64321000I0J275500D01*
G01*
X86743500Y-63770000D01*
G75*
G02*
X87019000Y-63494500I275500J0D01*
G01*
X88020000Y-63494500D01*
G75*
G02*
X88295500Y-63770000I0J-275500D01*
G01*
X88295500Y-64321000D01*
G75*
G02*
X88020000Y-64596500I-275500J0D01*
G01*
G37*
D19*
X57531000Y-143510000D03*
X57531000Y-140970000D03*
X57531000Y-138430000D03*
X57531000Y-135890000D03*
X57531000Y-133350000D03*
X57531000Y-130810000D03*
X57531000Y-128270000D03*
X57531000Y-125730000D03*
X57531000Y-123190000D03*
X57531000Y-120650000D03*
X57531000Y-118110000D03*
X57531000Y-115570000D03*
X57531000Y-113030000D03*
X57531000Y-110490000D03*
X57531000Y-107950000D03*
X57531000Y-105410000D03*
X57531000Y-102870000D03*
X57531000Y-100330000D03*
X57531000Y-97790000D03*
X57531000Y-95250000D03*
X72771000Y-95250000D03*
X72771000Y-97790000D03*
X72771000Y-100330000D03*
X72771000Y-102870000D03*
X72771000Y-105410000D03*
X72771000Y-107950000D03*
X72771000Y-110490000D03*
X72771000Y-113030000D03*
X72771000Y-115570000D03*
X72771000Y-118110000D03*
X72771000Y-120650000D03*
X72771000Y-123190000D03*
X72771000Y-125730000D03*
X72771000Y-128270000D03*
X72771000Y-130810000D03*
X72771000Y-133350000D03*
X72771000Y-135890000D03*
X72771000Y-138430000D03*
X72771000Y-140970000D03*
G36*
G01*
X73533000Y-144323000D02*
X72009000Y-144323000D01*
G75*
G02*
X71958000Y-144272000I0J51000D01*
G01*
X71958000Y-142748000D01*
G75*
G02*
X72009000Y-142697000I51000J0D01*
G01*
X73533000Y-142697000D01*
G75*
G02*
X73584000Y-142748000I0J-51000D01*
G01*
X73584000Y-144272000D01*
G75*
G02*
X73533000Y-144323000I-51000J0D01*
G01*
G37*
G36*
G01*
X97440625Y-89376500D02*
X96488375Y-89376500D01*
G75*
G02*
X96213500Y-89101625I0J274875D01*
G01*
X96213500Y-88524375D01*
G75*
G02*
X96488375Y-88249500I274875J0D01*
G01*
X97440625Y-88249500D01*
G75*
G02*
X97715500Y-88524375I0J-274875D01*
G01*
X97715500Y-89101625D01*
G75*
G02*
X97440625Y-89376500I-274875J0D01*
G01*
G37*
G36*
G01*
X97440625Y-91201500D02*
X96488375Y-91201500D01*
G75*
G02*
X96213500Y-90926625I0J274875D01*
G01*
X96213500Y-90349375D01*
G75*
G02*
X96488375Y-90074500I274875J0D01*
G01*
X97440625Y-90074500D01*
G75*
G02*
X97715500Y-90349375I0J-274875D01*
G01*
X97715500Y-90926625D01*
G75*
G02*
X97440625Y-91201500I-274875J0D01*
G01*
G37*
G36*
G01*
X91443375Y-63444500D02*
X92395625Y-63444500D01*
G75*
G02*
X92670500Y-63719375I0J-274875D01*
G01*
X92670500Y-64296625D01*
G75*
G02*
X92395625Y-64571500I-274875J0D01*
G01*
X91443375Y-64571500D01*
G75*
G02*
X91168500Y-64296625I0J274875D01*
G01*
X91168500Y-63719375D01*
G75*
G02*
X91443375Y-63444500I274875J0D01*
G01*
G37*
G36*
G01*
X91443375Y-61619500D02*
X92395625Y-61619500D01*
G75*
G02*
X92670500Y-61894375I0J-274875D01*
G01*
X92670500Y-62471625D01*
G75*
G02*
X92395625Y-62746500I-274875J0D01*
G01*
X91443375Y-62746500D01*
G75*
G02*
X91168500Y-62471625I0J274875D01*
G01*
X91168500Y-61894375D01*
G75*
G02*
X91443375Y-61619500I274875J0D01*
G01*
G37*
G36*
G01*
X89243375Y-63444500D02*
X90195625Y-63444500D01*
G75*
G02*
X90470500Y-63719375I0J-274875D01*
G01*
X90470500Y-64296625D01*
G75*
G02*
X90195625Y-64571500I-274875J0D01*
G01*
X89243375Y-64571500D01*
G75*
G02*
X88968500Y-64296625I0J274875D01*
G01*
X88968500Y-63719375D01*
G75*
G02*
X89243375Y-63444500I274875J0D01*
G01*
G37*
G36*
G01*
X89243375Y-61619500D02*
X90195625Y-61619500D01*
G75*
G02*
X90470500Y-61894375I0J-274875D01*
G01*
X90470500Y-62471625D01*
G75*
G02*
X90195625Y-62746500I-274875J0D01*
G01*
X89243375Y-62746500D01*
G75*
G02*
X88968500Y-62471625I0J274875D01*
G01*
X88968500Y-61894375D01*
G75*
G02*
X89243375Y-61619500I274875J0D01*
G01*
G37*
G36*
G01*
X109873000Y-132009000D02*
X109873000Y-131008000D01*
G75*
G02*
X110148500Y-130732500I275500J0D01*
G01*
X110699500Y-130732500D01*
G75*
G02*
X110975000Y-131008000I0J-275500D01*
G01*
X110975000Y-132009000D01*
G75*
G02*
X110699500Y-132284500I-275500J0D01*
G01*
X110148500Y-132284500D01*
G75*
G02*
X109873000Y-132009000I0J275500D01*
G01*
G37*
G36*
G01*
X107973000Y-132009000D02*
X107973000Y-131008000D01*
G75*
G02*
X108248500Y-130732500I275500J0D01*
G01*
X108799500Y-130732500D01*
G75*
G02*
X109075000Y-131008000I0J-275500D01*
G01*
X109075000Y-132009000D01*
G75*
G02*
X108799500Y-132284500I-275500J0D01*
G01*
X108248500Y-132284500D01*
G75*
G02*
X107973000Y-132009000I0J275500D01*
G01*
G37*
G36*
G01*
X109746000Y-114991000D02*
X109746000Y-113990000D01*
G75*
G02*
X110021500Y-113714500I275500J0D01*
G01*
X110572500Y-113714500D01*
G75*
G02*
X110848000Y-113990000I0J-275500D01*
G01*
X110848000Y-114991000D01*
G75*
G02*
X110572500Y-115266500I-275500J0D01*
G01*
X110021500Y-115266500D01*
G75*
G02*
X109746000Y-114991000I0J275500D01*
G01*
G37*
G36*
G01*
X107846000Y-114991000D02*
X107846000Y-113990000D01*
G75*
G02*
X108121500Y-113714500I275500J0D01*
G01*
X108672500Y-113714500D01*
G75*
G02*
X108948000Y-113990000I0J-275500D01*
G01*
X108948000Y-114991000D01*
G75*
G02*
X108672500Y-115266500I-275500J0D01*
G01*
X108121500Y-115266500D01*
G75*
G02*
X107846000Y-114991000I0J275500D01*
G01*
G37*
G36*
G01*
X109873000Y-129786500D02*
X109873000Y-128785500D01*
G75*
G02*
X110148500Y-128510000I275500J0D01*
G01*
X110699500Y-128510000D01*
G75*
G02*
X110975000Y-128785500I0J-275500D01*
G01*
X110975000Y-129786500D01*
G75*
G02*
X110699500Y-130062000I-275500J0D01*
G01*
X110148500Y-130062000D01*
G75*
G02*
X109873000Y-129786500I0J275500D01*
G01*
G37*
G36*
G01*
X107973000Y-129786500D02*
X107973000Y-128785500D01*
G75*
G02*
X108248500Y-128510000I275500J0D01*
G01*
X108799500Y-128510000D01*
G75*
G02*
X109075000Y-128785500I0J-275500D01*
G01*
X109075000Y-129786500D01*
G75*
G02*
X108799500Y-130062000I-275500J0D01*
G01*
X108248500Y-130062000D01*
G75*
G02*
X107973000Y-129786500I0J275500D01*
G01*
G37*
G36*
G01*
X52507000Y-118663500D02*
X51506000Y-118663500D01*
G75*
G02*
X51230500Y-118388000I0J275500D01*
G01*
X51230500Y-117837000D01*
G75*
G02*
X51506000Y-117561500I275500J0D01*
G01*
X52507000Y-117561500D01*
G75*
G02*
X52782500Y-117837000I0J-275500D01*
G01*
X52782500Y-118388000D01*
G75*
G02*
X52507000Y-118663500I-275500J0D01*
G01*
G37*
G36*
G01*
X52507000Y-120563500D02*
X51506000Y-120563500D01*
G75*
G02*
X51230500Y-120288000I0J275500D01*
G01*
X51230500Y-119737000D01*
G75*
G02*
X51506000Y-119461500I275500J0D01*
G01*
X52507000Y-119461500D01*
G75*
G02*
X52782500Y-119737000I0J-275500D01*
G01*
X52782500Y-120288000D01*
G75*
G02*
X52507000Y-120563500I-275500J0D01*
G01*
G37*
G36*
G01*
X79420500Y-123385500D02*
X79420500Y-124386500D01*
G75*
G02*
X79145000Y-124662000I-275500J0D01*
G01*
X78594000Y-124662000D01*
G75*
G02*
X78318500Y-124386500I0J275500D01*
G01*
X78318500Y-123385500D01*
G75*
G02*
X78594000Y-123110000I275500J0D01*
G01*
X79145000Y-123110000D01*
G75*
G02*
X79420500Y-123385500I0J-275500D01*
G01*
G37*
G36*
G01*
X81320500Y-123385500D02*
X81320500Y-124386500D01*
G75*
G02*
X81045000Y-124662000I-275500J0D01*
G01*
X80494000Y-124662000D01*
G75*
G02*
X80218500Y-124386500I0J275500D01*
G01*
X80218500Y-123385500D01*
G75*
G02*
X80494000Y-123110000I275500J0D01*
G01*
X81045000Y-123110000D01*
G75*
G02*
X81320500Y-123385500I0J-275500D01*
G01*
G37*
G36*
G01*
X79420500Y-121165500D02*
X79420500Y-122166500D01*
G75*
G02*
X79145000Y-122442000I-275500J0D01*
G01*
X78594000Y-122442000D01*
G75*
G02*
X78318500Y-122166500I0J275500D01*
G01*
X78318500Y-121165500D01*
G75*
G02*
X78594000Y-120890000I275500J0D01*
G01*
X79145000Y-120890000D01*
G75*
G02*
X79420500Y-121165500I0J-275500D01*
G01*
G37*
G36*
G01*
X81320500Y-121165500D02*
X81320500Y-122166500D01*
G75*
G02*
X81045000Y-122442000I-275500J0D01*
G01*
X80494000Y-122442000D01*
G75*
G02*
X80218500Y-122166500I0J275500D01*
G01*
X80218500Y-121165500D01*
G75*
G02*
X80494000Y-120890000I275500J0D01*
G01*
X81045000Y-120890000D01*
G75*
G02*
X81320500Y-121165500I0J-275500D01*
G01*
G37*
G36*
G01*
X80218500Y-107307500D02*
X80218500Y-106306500D01*
G75*
G02*
X80494000Y-106031000I275500J0D01*
G01*
X81045000Y-106031000D01*
G75*
G02*
X81320500Y-106306500I0J-275500D01*
G01*
X81320500Y-107307500D01*
G75*
G02*
X81045000Y-107583000I-275500J0D01*
G01*
X80494000Y-107583000D01*
G75*
G02*
X80218500Y-107307500I0J275500D01*
G01*
G37*
G36*
G01*
X78318500Y-107307500D02*
X78318500Y-106306500D01*
G75*
G02*
X78594000Y-106031000I275500J0D01*
G01*
X79145000Y-106031000D01*
G75*
G02*
X79420500Y-106306500I0J-275500D01*
G01*
X79420500Y-107307500D01*
G75*
G02*
X79145000Y-107583000I-275500J0D01*
G01*
X78594000Y-107583000D01*
G75*
G02*
X78318500Y-107307500I0J275500D01*
G01*
G37*
D22*
G36*
X88036232Y-91932500D02*
G01*
X88036500Y-91933500D01*
X88036500Y-93635500D01*
X88035500Y-93637232D01*
X88034500Y-93637500D01*
X87886500Y-93637500D01*
X87884768Y-93636500D01*
X87884500Y-93635500D01*
X87884500Y-91933500D01*
X87885500Y-91931768D01*
X87886500Y-91931500D01*
X88034500Y-91931500D01*
X88036232Y-91932500D01*
G37*
G36*
X92836232Y-91932500D02*
G01*
X92836500Y-91933500D01*
X92836500Y-93635500D01*
X92835500Y-93637232D01*
X92834500Y-93637500D01*
X92686500Y-93637500D01*
X92684768Y-93636500D01*
X92684500Y-93635500D01*
X92684500Y-91933500D01*
X92685500Y-91931768D01*
X92686500Y-91931500D01*
X92834500Y-91931500D01*
X92836232Y-91932500D01*
G37*
G36*
X92036232Y-91932500D02*
G01*
X92036500Y-91933500D01*
X92036500Y-93635500D01*
X92035500Y-93637232D01*
X92034500Y-93637500D01*
X91886500Y-93637500D01*
X91884768Y-93636500D01*
X91884500Y-93635500D01*
X91884500Y-91933500D01*
X91885500Y-91931768D01*
X91886500Y-91931500D01*
X92034500Y-91931500D01*
X92036232Y-91932500D01*
G37*
G36*
X91236232Y-91932500D02*
G01*
X91236500Y-91933500D01*
X91236500Y-93635500D01*
X91235500Y-93637232D01*
X91234500Y-93637500D01*
X91086500Y-93637500D01*
X91084768Y-93636500D01*
X91084500Y-93635500D01*
X91084500Y-91933500D01*
X91085500Y-91931768D01*
X91086500Y-91931500D01*
X91234500Y-91931500D01*
X91236232Y-91932500D01*
G37*
G36*
X89636232Y-91932500D02*
G01*
X89636500Y-91933500D01*
X89636500Y-93635500D01*
X89635500Y-93637232D01*
X89634500Y-93637500D01*
X89486500Y-93637500D01*
X89484768Y-93636500D01*
X89484500Y-93635500D01*
X89484500Y-91933500D01*
X89485500Y-91931768D01*
X89486500Y-91931500D01*
X89634500Y-91931500D01*
X89636232Y-91932500D01*
G37*
G36*
X90436232Y-91932500D02*
G01*
X90436500Y-91933500D01*
X90436500Y-93635500D01*
X90435500Y-93637232D01*
X90434500Y-93637500D01*
X90286500Y-93637500D01*
X90284768Y-93636500D01*
X90284500Y-93635500D01*
X90284500Y-91933500D01*
X90285500Y-91931768D01*
X90286500Y-91931500D01*
X90434500Y-91931500D01*
X90436232Y-91932500D01*
G37*
G36*
X88836232Y-91932500D02*
G01*
X88836500Y-91933500D01*
X88836500Y-93635500D01*
X88835500Y-93637232D01*
X88834500Y-93637500D01*
X88686500Y-93637500D01*
X88684768Y-93636500D01*
X88684500Y-93635500D01*
X88684500Y-91933500D01*
X88685500Y-91931768D01*
X88686500Y-91931500D01*
X88834500Y-91931500D01*
X88836232Y-91932500D01*
G37*
G36*
X86963232Y-90859500D02*
G01*
X86963500Y-90860500D01*
X86963500Y-91008500D01*
X86962500Y-91010232D01*
X86961500Y-91010500D01*
X85259500Y-91010500D01*
X85257768Y-91009500D01*
X85257500Y-91008500D01*
X85257500Y-90860500D01*
X85258500Y-90858768D01*
X85259500Y-90858500D01*
X86961500Y-90858500D01*
X86963232Y-90859500D01*
G37*
G36*
X95463232Y-90859500D02*
G01*
X95463500Y-90860500D01*
X95463500Y-91008500D01*
X95462500Y-91010232D01*
X95461500Y-91010500D01*
X93759500Y-91010500D01*
X93757768Y-91009500D01*
X93757500Y-91008500D01*
X93757500Y-90860500D01*
X93758500Y-90858768D01*
X93759500Y-90858500D01*
X95461500Y-90858500D01*
X95463232Y-90859500D01*
G37*
G36*
X86963232Y-90059500D02*
G01*
X86963500Y-90060500D01*
X86963500Y-90208500D01*
X86962500Y-90210232D01*
X86961500Y-90210500D01*
X85259500Y-90210500D01*
X85257768Y-90209500D01*
X85257500Y-90208500D01*
X85257500Y-90060500D01*
X85258500Y-90058768D01*
X85259500Y-90058500D01*
X86961500Y-90058500D01*
X86963232Y-90059500D01*
G37*
G36*
X95463232Y-90059500D02*
G01*
X95463500Y-90060500D01*
X95463500Y-90208500D01*
X95462500Y-90210232D01*
X95461500Y-90210500D01*
X93759500Y-90210500D01*
X93757768Y-90209500D01*
X93757500Y-90208500D01*
X93757500Y-90060500D01*
X93758500Y-90058768D01*
X93759500Y-90058500D01*
X95461500Y-90058500D01*
X95463232Y-90059500D01*
G37*
G36*
X86963232Y-89259500D02*
G01*
X86963500Y-89260500D01*
X86963500Y-89408500D01*
X86962500Y-89410232D01*
X86961500Y-89410500D01*
X85259500Y-89410500D01*
X85257768Y-89409500D01*
X85257500Y-89408500D01*
X85257500Y-89260500D01*
X85258500Y-89258768D01*
X85259500Y-89258500D01*
X86961500Y-89258500D01*
X86963232Y-89259500D01*
G37*
G36*
X95463232Y-89259500D02*
G01*
X95463500Y-89260500D01*
X95463500Y-89408500D01*
X95462500Y-89410232D01*
X95461500Y-89410500D01*
X93759500Y-89410500D01*
X93757768Y-89409500D01*
X93757500Y-89408500D01*
X93757500Y-89260500D01*
X93758500Y-89258768D01*
X93759500Y-89258500D01*
X95461500Y-89258500D01*
X95463232Y-89259500D01*
G37*
G36*
X95463232Y-88459500D02*
G01*
X95463500Y-88460500D01*
X95463500Y-88608500D01*
X95462500Y-88610232D01*
X95461500Y-88610500D01*
X93759500Y-88610500D01*
X93757768Y-88609500D01*
X93757500Y-88608500D01*
X93757500Y-88460500D01*
X93758500Y-88458768D01*
X93759500Y-88458500D01*
X95461500Y-88458500D01*
X95463232Y-88459500D01*
G37*
G36*
X86963232Y-88459500D02*
G01*
X86963500Y-88460500D01*
X86963500Y-88608500D01*
X86962500Y-88610232D01*
X86961500Y-88610500D01*
X85259500Y-88610500D01*
X85257768Y-88609500D01*
X85257500Y-88608500D01*
X85257500Y-88460500D01*
X85258500Y-88458768D01*
X85259500Y-88458500D01*
X86961500Y-88458500D01*
X86963232Y-88459500D01*
G37*
G36*
X95463232Y-87659500D02*
G01*
X95463500Y-87660500D01*
X95463500Y-87808500D01*
X95462500Y-87810232D01*
X95461500Y-87810500D01*
X93759500Y-87810500D01*
X93757768Y-87809500D01*
X93757500Y-87808500D01*
X93757500Y-87660500D01*
X93758500Y-87658768D01*
X93759500Y-87658500D01*
X95461500Y-87658500D01*
X95463232Y-87659500D01*
G37*
G36*
X86963232Y-87659500D02*
G01*
X86963500Y-87660500D01*
X86963500Y-87808500D01*
X86962500Y-87810232D01*
X86961500Y-87810500D01*
X85259500Y-87810500D01*
X85257768Y-87809500D01*
X85257500Y-87808500D01*
X85257500Y-87660500D01*
X85258500Y-87658768D01*
X85259500Y-87658500D01*
X86961500Y-87658500D01*
X86963232Y-87659500D01*
G37*
G36*
X86963232Y-86859500D02*
G01*
X86963500Y-86860500D01*
X86963500Y-87008500D01*
X86962500Y-87010232D01*
X86961500Y-87010500D01*
X85259500Y-87010500D01*
X85257768Y-87009500D01*
X85257500Y-87008500D01*
X85257500Y-86860500D01*
X85258500Y-86858768D01*
X85259500Y-86858500D01*
X86961500Y-86858500D01*
X86963232Y-86859500D01*
G37*
G36*
X95463232Y-86859500D02*
G01*
X95463500Y-86860500D01*
X95463500Y-87008500D01*
X95462500Y-87010232D01*
X95461500Y-87010500D01*
X93759500Y-87010500D01*
X93757768Y-87009500D01*
X93757500Y-87008500D01*
X93757500Y-86860500D01*
X93758500Y-86858768D01*
X93759500Y-86858500D01*
X95461500Y-86858500D01*
X95463232Y-86859500D01*
G37*
G36*
X95463232Y-86059500D02*
G01*
X95463500Y-86060500D01*
X95463500Y-86208500D01*
X95462500Y-86210232D01*
X95461500Y-86210500D01*
X93759500Y-86210500D01*
X93757768Y-86209500D01*
X93757500Y-86208500D01*
X93757500Y-86060500D01*
X93758500Y-86058768D01*
X93759500Y-86058500D01*
X95461500Y-86058500D01*
X95463232Y-86059500D01*
G37*
G36*
X86963232Y-86059500D02*
G01*
X86963500Y-86060500D01*
X86963500Y-86208500D01*
X86962500Y-86210232D01*
X86961500Y-86210500D01*
X85259500Y-86210500D01*
X85257768Y-86209500D01*
X85257500Y-86208500D01*
X85257500Y-86060500D01*
X85258500Y-86058768D01*
X85259500Y-86058500D01*
X86961500Y-86058500D01*
X86963232Y-86059500D01*
G37*
G36*
X88036232Y-83432500D02*
G01*
X88036500Y-83433500D01*
X88036500Y-85135500D01*
X88035500Y-85137232D01*
X88034500Y-85137500D01*
X87886500Y-85137500D01*
X87884768Y-85136500D01*
X87884500Y-85135500D01*
X87884500Y-83433500D01*
X87885500Y-83431768D01*
X87886500Y-83431500D01*
X88034500Y-83431500D01*
X88036232Y-83432500D01*
G37*
G36*
X89636232Y-83432500D02*
G01*
X89636500Y-83433500D01*
X89636500Y-85135500D01*
X89635500Y-85137232D01*
X89634500Y-85137500D01*
X89486500Y-85137500D01*
X89484768Y-85136500D01*
X89484500Y-85135500D01*
X89484500Y-83433500D01*
X89485500Y-83431768D01*
X89486500Y-83431500D01*
X89634500Y-83431500D01*
X89636232Y-83432500D01*
G37*
G36*
X90436232Y-83432500D02*
G01*
X90436500Y-83433500D01*
X90436500Y-85135500D01*
X90435500Y-85137232D01*
X90434500Y-85137500D01*
X90286500Y-85137500D01*
X90284768Y-85136500D01*
X90284500Y-85135500D01*
X90284500Y-83433500D01*
X90285500Y-83431768D01*
X90286500Y-83431500D01*
X90434500Y-83431500D01*
X90436232Y-83432500D01*
G37*
G36*
X91236232Y-83432500D02*
G01*
X91236500Y-83433500D01*
X91236500Y-85135500D01*
X91235500Y-85137232D01*
X91234500Y-85137500D01*
X91086500Y-85137500D01*
X91084768Y-85136500D01*
X91084500Y-85135500D01*
X91084500Y-83433500D01*
X91085500Y-83431768D01*
X91086500Y-83431500D01*
X91234500Y-83431500D01*
X91236232Y-83432500D01*
G37*
G36*
X92036232Y-83432500D02*
G01*
X92036500Y-83433500D01*
X92036500Y-85135500D01*
X92035500Y-85137232D01*
X92034500Y-85137500D01*
X91886500Y-85137500D01*
X91884768Y-85136500D01*
X91884500Y-85135500D01*
X91884500Y-83433500D01*
X91885500Y-83431768D01*
X91886500Y-83431500D01*
X92034500Y-83431500D01*
X92036232Y-83432500D01*
G37*
G36*
X92836232Y-83432500D02*
G01*
X92836500Y-83433500D01*
X92836500Y-85135500D01*
X92835500Y-85137232D01*
X92834500Y-85137500D01*
X92686500Y-85137500D01*
X92684768Y-85136500D01*
X92684500Y-85135500D01*
X92684500Y-83433500D01*
X92685500Y-83431768D01*
X92686500Y-83431500D01*
X92834500Y-83431500D01*
X92836232Y-83432500D01*
G37*
G36*
X88836232Y-83432500D02*
G01*
X88836500Y-83433500D01*
X88836500Y-85135500D01*
X88835500Y-85137232D01*
X88834500Y-85137500D01*
X88686500Y-85137500D01*
X88684768Y-85136500D01*
X88684500Y-85135500D01*
X88684500Y-83433500D01*
X88685500Y-83431768D01*
X88686500Y-83431500D01*
X88834500Y-83431500D01*
X88836232Y-83432500D01*
G37*
G36*
X107391665Y-82676374D02*
G01*
X107392500Y-82678000D01*
X107392500Y-82760097D01*
X107392490Y-82760293D01*
X107388501Y-82800796D01*
X107388425Y-82801181D01*
X107378399Y-82834233D01*
X107378249Y-82834595D01*
X107361972Y-82865046D01*
X107361754Y-82865372D01*
X107339845Y-82892068D01*
X107339568Y-82892345D01*
X107312872Y-82914254D01*
X107312546Y-82914472D01*
X107282095Y-82930749D01*
X107281733Y-82930899D01*
X107248681Y-82940925D01*
X107248296Y-82941001D01*
X107207793Y-82944990D01*
X107207597Y-82945000D01*
X107125500Y-82945000D01*
X107123768Y-82944000D01*
X107123768Y-82942000D01*
X107125304Y-82941010D01*
X107176804Y-82935938D01*
X107226142Y-82920971D01*
X107271610Y-82896668D01*
X107311462Y-82863962D01*
X107344168Y-82824110D01*
X107368471Y-82778642D01*
X107383438Y-82729304D01*
X107388510Y-82677804D01*
X107389675Y-82676178D01*
X107391665Y-82676374D01*
G37*
G36*
X105590490Y-82677804D02*
G01*
X105595562Y-82729304D01*
X105610529Y-82778642D01*
X105634832Y-82824110D01*
X105667538Y-82863962D01*
X105707390Y-82896668D01*
X105752858Y-82920971D01*
X105802196Y-82935938D01*
X105853696Y-82941010D01*
X105855322Y-82942175D01*
X105855126Y-82944165D01*
X105853500Y-82945000D01*
X105771403Y-82945000D01*
X105771207Y-82944990D01*
X105730704Y-82941001D01*
X105730319Y-82940925D01*
X105697267Y-82930899D01*
X105696905Y-82930749D01*
X105666454Y-82914472D01*
X105666128Y-82914254D01*
X105639432Y-82892345D01*
X105639155Y-82892068D01*
X105617246Y-82865372D01*
X105617028Y-82865046D01*
X105600751Y-82834595D01*
X105600601Y-82834233D01*
X105590575Y-82801181D01*
X105590499Y-82800796D01*
X105586510Y-82760293D01*
X105586500Y-82760097D01*
X105586500Y-82678000D01*
X105587500Y-82676268D01*
X105589500Y-82676268D01*
X105590490Y-82677804D01*
G37*
G36*
X105855232Y-81140000D02*
G01*
X105855232Y-81142000D01*
X105853696Y-81142990D01*
X105802196Y-81148062D01*
X105752858Y-81163029D01*
X105707390Y-81187332D01*
X105667538Y-81220038D01*
X105634832Y-81259890D01*
X105610529Y-81305358D01*
X105595562Y-81354696D01*
X105590490Y-81406196D01*
X105589325Y-81407822D01*
X105587335Y-81407626D01*
X105586500Y-81406000D01*
X105586500Y-81323903D01*
X105586510Y-81323707D01*
X105590499Y-81283204D01*
X105590575Y-81282819D01*
X105600601Y-81249767D01*
X105600751Y-81249405D01*
X105617028Y-81218954D01*
X105617246Y-81218628D01*
X105639155Y-81191932D01*
X105639432Y-81191655D01*
X105666128Y-81169746D01*
X105666454Y-81169528D01*
X105696905Y-81153251D01*
X105697267Y-81153101D01*
X105730319Y-81143075D01*
X105730704Y-81142999D01*
X105771207Y-81139010D01*
X105771403Y-81139000D01*
X105853500Y-81139000D01*
X105855232Y-81140000D01*
G37*
G36*
X107207793Y-81139010D02*
G01*
X107248296Y-81142999D01*
X107248681Y-81143075D01*
X107281733Y-81153101D01*
X107282095Y-81153251D01*
X107312546Y-81169528D01*
X107312872Y-81169746D01*
X107339568Y-81191655D01*
X107339845Y-81191932D01*
X107361754Y-81218628D01*
X107361972Y-81218954D01*
X107378249Y-81249405D01*
X107378399Y-81249767D01*
X107388425Y-81282819D01*
X107388501Y-81283204D01*
X107392490Y-81323707D01*
X107392500Y-81323903D01*
X107392500Y-81406000D01*
X107391500Y-81407732D01*
X107389500Y-81407732D01*
X107388510Y-81406196D01*
X107383438Y-81354696D01*
X107368471Y-81305358D01*
X107344168Y-81259890D01*
X107311462Y-81220038D01*
X107271610Y-81187332D01*
X107226142Y-81163029D01*
X107176804Y-81148062D01*
X107125304Y-81142990D01*
X107123678Y-81141825D01*
X107123874Y-81139835D01*
X107125500Y-81139000D01*
X107207597Y-81139000D01*
X107207793Y-81139010D01*
G37*
G36*
X80564338Y-66621863D02*
G01*
X80574433Y-66636970D01*
X80591481Y-66654016D01*
X80611529Y-66667410D01*
X80633803Y-66676635D01*
X80657453Y-66681339D01*
X80681559Y-66681338D01*
X80705209Y-66676632D01*
X80727483Y-66667405D01*
X80747530Y-66654009D01*
X80764576Y-66636961D01*
X80774661Y-66621867D01*
X80776455Y-66620982D01*
X80778118Y-66622093D01*
X80778088Y-66623921D01*
X80748979Y-66678380D01*
X80727695Y-66748541D01*
X80720500Y-66821594D01*
X80720500Y-67171406D01*
X80727695Y-67244458D01*
X80748978Y-67314619D01*
X80778088Y-67369080D01*
X80778022Y-67371079D01*
X80776259Y-67372022D01*
X80774661Y-67371134D01*
X80764572Y-67356035D01*
X80747525Y-67338988D01*
X80727478Y-67325593D01*
X80705204Y-67316367D01*
X80681554Y-67311662D01*
X80657448Y-67311662D01*
X80633797Y-67316366D01*
X80611524Y-67325592D01*
X80591476Y-67338987D01*
X80574429Y-67356034D01*
X80564339Y-67371134D01*
X80562545Y-67372019D01*
X80560882Y-67370908D01*
X80560912Y-67369080D01*
X80590022Y-67314620D01*
X80611305Y-67244459D01*
X80618500Y-67171406D01*
X80618500Y-66821594D01*
X80611305Y-66748541D01*
X80590022Y-66678380D01*
X80560911Y-66623917D01*
X80560977Y-66621918D01*
X80562740Y-66620975D01*
X80564338Y-66621863D01*
G37*
G36*
X78864338Y-66621863D02*
G01*
X78874433Y-66636970D01*
X78891481Y-66654016D01*
X78911529Y-66667410D01*
X78933803Y-66676635D01*
X78957453Y-66681339D01*
X78981559Y-66681338D01*
X79005209Y-66676632D01*
X79027483Y-66667405D01*
X79047530Y-66654009D01*
X79064576Y-66636961D01*
X79074661Y-66621867D01*
X79076455Y-66620982D01*
X79078118Y-66622093D01*
X79078088Y-66623921D01*
X79048979Y-66678380D01*
X79027695Y-66748541D01*
X79020500Y-66821594D01*
X79020500Y-67171406D01*
X79027695Y-67244458D01*
X79048978Y-67314619D01*
X79078088Y-67369080D01*
X79078022Y-67371079D01*
X79076259Y-67372022D01*
X79074661Y-67371134D01*
X79064572Y-67356035D01*
X79047525Y-67338988D01*
X79027478Y-67325593D01*
X79005204Y-67316367D01*
X78981554Y-67311662D01*
X78957448Y-67311662D01*
X78933797Y-67316366D01*
X78911524Y-67325592D01*
X78891476Y-67338987D01*
X78874429Y-67356034D01*
X78864339Y-67371134D01*
X78862545Y-67372019D01*
X78860882Y-67370908D01*
X78860912Y-67369080D01*
X78890022Y-67314620D01*
X78911305Y-67244459D01*
X78918500Y-67171406D01*
X78918500Y-66821594D01*
X78911305Y-66748541D01*
X78890022Y-66678380D01*
X78860911Y-66623917D01*
X78860977Y-66621918D01*
X78862740Y-66620975D01*
X78864338Y-66621863D01*
G37*
G36*
X81414338Y-66621863D02*
G01*
X81424433Y-66636970D01*
X81441481Y-66654016D01*
X81461529Y-66667410D01*
X81483803Y-66676635D01*
X81507453Y-66681339D01*
X81531559Y-66681338D01*
X81555209Y-66676632D01*
X81577483Y-66667405D01*
X81597530Y-66654009D01*
X81614576Y-66636961D01*
X81624661Y-66621867D01*
X81626455Y-66620982D01*
X81628118Y-66622093D01*
X81628088Y-66623921D01*
X81598979Y-66678380D01*
X81577695Y-66748541D01*
X81570500Y-66821594D01*
X81570500Y-67171406D01*
X81577695Y-67244458D01*
X81598978Y-67314619D01*
X81628088Y-67369080D01*
X81628022Y-67371079D01*
X81626259Y-67372022D01*
X81624661Y-67371134D01*
X81614572Y-67356035D01*
X81597525Y-67338988D01*
X81577478Y-67325593D01*
X81555204Y-67316367D01*
X81531554Y-67311662D01*
X81507448Y-67311662D01*
X81483797Y-67316366D01*
X81461524Y-67325592D01*
X81441476Y-67338987D01*
X81424429Y-67356034D01*
X81414339Y-67371134D01*
X81412545Y-67372019D01*
X81410882Y-67370908D01*
X81410912Y-67369080D01*
X81440022Y-67314620D01*
X81461305Y-67244459D01*
X81468500Y-67171406D01*
X81468500Y-66821594D01*
X81461305Y-66748541D01*
X81440022Y-66678380D01*
X81410911Y-66623917D01*
X81410977Y-66621918D01*
X81412740Y-66620975D01*
X81414338Y-66621863D01*
G37*
G36*
X78014338Y-66621863D02*
G01*
X78024433Y-66636970D01*
X78041481Y-66654016D01*
X78061529Y-66667410D01*
X78083803Y-66676635D01*
X78107453Y-66681339D01*
X78131559Y-66681338D01*
X78155209Y-66676632D01*
X78177483Y-66667405D01*
X78197530Y-66654009D01*
X78214576Y-66636961D01*
X78224661Y-66621867D01*
X78226455Y-66620982D01*
X78228118Y-66622093D01*
X78228088Y-66623921D01*
X78198979Y-66678380D01*
X78177695Y-66748541D01*
X78170500Y-66821594D01*
X78170500Y-67171406D01*
X78177695Y-67244458D01*
X78198978Y-67314619D01*
X78228088Y-67369080D01*
X78228022Y-67371079D01*
X78226259Y-67372022D01*
X78224661Y-67371134D01*
X78214572Y-67356035D01*
X78197525Y-67338988D01*
X78177478Y-67325593D01*
X78155204Y-67316367D01*
X78131554Y-67311662D01*
X78107448Y-67311662D01*
X78083797Y-67316366D01*
X78061524Y-67325592D01*
X78041476Y-67338987D01*
X78024429Y-67356034D01*
X78014339Y-67371134D01*
X78012545Y-67372019D01*
X78010882Y-67370908D01*
X78010912Y-67369080D01*
X78040022Y-67314620D01*
X78061305Y-67244459D01*
X78068500Y-67171406D01*
X78068500Y-66821594D01*
X78061305Y-66748541D01*
X78040022Y-66678380D01*
X78010911Y-66623917D01*
X78010977Y-66621918D01*
X78012740Y-66620975D01*
X78014338Y-66621863D01*
G37*
G36*
X77164338Y-66621863D02*
G01*
X77174433Y-66636970D01*
X77191481Y-66654016D01*
X77211529Y-66667410D01*
X77233803Y-66676635D01*
X77257453Y-66681339D01*
X77281559Y-66681338D01*
X77305209Y-66676632D01*
X77327483Y-66667405D01*
X77347530Y-66654009D01*
X77364576Y-66636961D01*
X77374661Y-66621867D01*
X77376455Y-66620982D01*
X77378118Y-66622093D01*
X77378088Y-66623921D01*
X77348979Y-66678380D01*
X77327695Y-66748541D01*
X77320500Y-66821594D01*
X77320500Y-67171406D01*
X77327695Y-67244458D01*
X77348978Y-67314619D01*
X77378088Y-67369080D01*
X77378022Y-67371079D01*
X77376259Y-67372022D01*
X77374661Y-67371134D01*
X77364572Y-67356035D01*
X77347525Y-67338988D01*
X77327478Y-67325593D01*
X77305204Y-67316367D01*
X77281554Y-67311662D01*
X77257448Y-67311662D01*
X77233797Y-67316366D01*
X77211524Y-67325592D01*
X77191476Y-67338987D01*
X77174429Y-67356034D01*
X77164339Y-67371134D01*
X77162545Y-67372019D01*
X77160882Y-67370908D01*
X77160912Y-67369080D01*
X77190022Y-67314620D01*
X77211305Y-67244459D01*
X77218500Y-67171406D01*
X77218500Y-66821594D01*
X77211305Y-66748541D01*
X77190022Y-66678380D01*
X77160911Y-66623917D01*
X77160977Y-66621918D01*
X77162740Y-66620975D01*
X77164338Y-66621863D01*
G37*
G36*
X79714338Y-66621863D02*
G01*
X79724433Y-66636970D01*
X79741481Y-66654016D01*
X79761529Y-66667410D01*
X79783803Y-66676635D01*
X79807453Y-66681339D01*
X79831559Y-66681338D01*
X79855209Y-66676632D01*
X79877483Y-66667405D01*
X79897530Y-66654009D01*
X79914576Y-66636961D01*
X79924661Y-66621867D01*
X79926455Y-66620982D01*
X79928118Y-66622093D01*
X79928088Y-66623921D01*
X79898979Y-66678380D01*
X79877695Y-66748541D01*
X79870500Y-66821594D01*
X79870500Y-67171406D01*
X79877695Y-67244458D01*
X79898978Y-67314619D01*
X79928088Y-67369080D01*
X79928022Y-67371079D01*
X79926259Y-67372022D01*
X79924661Y-67371134D01*
X79914572Y-67356035D01*
X79897525Y-67338988D01*
X79877478Y-67325593D01*
X79855204Y-67316367D01*
X79831554Y-67311662D01*
X79807448Y-67311662D01*
X79783797Y-67316366D01*
X79761524Y-67325592D01*
X79741476Y-67338987D01*
X79724429Y-67356034D01*
X79714339Y-67371134D01*
X79712545Y-67372019D01*
X79710882Y-67370908D01*
X79710912Y-67369080D01*
X79740022Y-67314620D01*
X79761305Y-67244459D01*
X79768500Y-67171406D01*
X79768500Y-66821594D01*
X79761305Y-66748541D01*
X79740022Y-66678380D01*
X79710911Y-66623917D01*
X79710977Y-66621918D01*
X79712740Y-66620975D01*
X79714338Y-66621863D01*
G37*
G36*
X82264338Y-66621863D02*
G01*
X82274433Y-66636970D01*
X82291481Y-66654016D01*
X82311529Y-66667410D01*
X82333803Y-66676635D01*
X82357453Y-66681339D01*
X82381559Y-66681338D01*
X82405209Y-66676632D01*
X82427483Y-66667405D01*
X82447530Y-66654009D01*
X82464576Y-66636961D01*
X82474661Y-66621867D01*
X82476455Y-66620982D01*
X82478118Y-66622093D01*
X82478088Y-66623921D01*
X82448979Y-66678380D01*
X82427695Y-66748541D01*
X82420500Y-66821594D01*
X82420500Y-67171406D01*
X82427695Y-67244458D01*
X82448978Y-67314619D01*
X82478088Y-67369080D01*
X82478022Y-67371079D01*
X82476259Y-67372022D01*
X82474661Y-67371134D01*
X82464572Y-67356035D01*
X82447525Y-67338988D01*
X82427478Y-67325593D01*
X82405204Y-67316367D01*
X82381554Y-67311662D01*
X82357448Y-67311662D01*
X82333797Y-67316366D01*
X82311524Y-67325592D01*
X82291476Y-67338987D01*
X82274429Y-67356034D01*
X82264339Y-67371134D01*
X82262545Y-67372019D01*
X82260882Y-67370908D01*
X82260912Y-67369080D01*
X82290022Y-67314620D01*
X82311305Y-67244459D01*
X82318500Y-67171406D01*
X82318500Y-66821594D01*
X82311305Y-66748541D01*
X82290022Y-66678380D01*
X82260911Y-66623917D01*
X82260977Y-66621918D01*
X82262740Y-66620975D01*
X82264338Y-66621863D01*
G37*
G36*
X77159338Y-65169863D02*
G01*
X77169433Y-65184970D01*
X77186481Y-65202016D01*
X77206529Y-65215410D01*
X77228803Y-65224635D01*
X77252453Y-65229339D01*
X77276559Y-65229338D01*
X77300209Y-65224632D01*
X77322483Y-65215405D01*
X77342530Y-65202009D01*
X77359576Y-65184961D01*
X77369661Y-65169867D01*
X77371455Y-65168982D01*
X77373118Y-65170093D01*
X77373088Y-65171921D01*
X77343979Y-65226380D01*
X77322695Y-65296541D01*
X77315500Y-65369594D01*
X77315500Y-65719406D01*
X77322695Y-65792458D01*
X77343978Y-65862619D01*
X77373088Y-65917080D01*
X77373022Y-65919079D01*
X77371259Y-65920022D01*
X77369661Y-65919134D01*
X77359572Y-65904035D01*
X77342525Y-65886988D01*
X77322478Y-65873593D01*
X77300204Y-65864367D01*
X77276554Y-65859662D01*
X77252448Y-65859662D01*
X77228797Y-65864366D01*
X77206524Y-65873592D01*
X77186476Y-65886987D01*
X77169429Y-65904034D01*
X77159339Y-65919134D01*
X77157545Y-65920019D01*
X77155882Y-65918908D01*
X77155912Y-65917080D01*
X77185022Y-65862620D01*
X77206305Y-65792459D01*
X77213500Y-65719406D01*
X77213500Y-65369594D01*
X77206305Y-65296541D01*
X77185022Y-65226380D01*
X77155911Y-65171917D01*
X77155977Y-65169918D01*
X77157740Y-65168975D01*
X77159338Y-65169863D01*
G37*
G36*
X78009338Y-65169863D02*
G01*
X78019433Y-65184970D01*
X78036481Y-65202016D01*
X78056529Y-65215410D01*
X78078803Y-65224635D01*
X78102453Y-65229339D01*
X78126559Y-65229338D01*
X78150209Y-65224632D01*
X78172483Y-65215405D01*
X78192530Y-65202009D01*
X78209576Y-65184961D01*
X78219661Y-65169867D01*
X78221455Y-65168982D01*
X78223118Y-65170093D01*
X78223088Y-65171921D01*
X78193979Y-65226380D01*
X78172695Y-65296541D01*
X78165500Y-65369594D01*
X78165500Y-65719406D01*
X78172695Y-65792458D01*
X78193978Y-65862619D01*
X78223088Y-65917080D01*
X78223022Y-65919079D01*
X78221259Y-65920022D01*
X78219661Y-65919134D01*
X78209572Y-65904035D01*
X78192525Y-65886988D01*
X78172478Y-65873593D01*
X78150204Y-65864367D01*
X78126554Y-65859662D01*
X78102448Y-65859662D01*
X78078797Y-65864366D01*
X78056524Y-65873592D01*
X78036476Y-65886987D01*
X78019429Y-65904034D01*
X78009339Y-65919134D01*
X78007545Y-65920019D01*
X78005882Y-65918908D01*
X78005912Y-65917080D01*
X78035022Y-65862620D01*
X78056305Y-65792459D01*
X78063500Y-65719406D01*
X78063500Y-65369594D01*
X78056305Y-65296541D01*
X78035022Y-65226380D01*
X78005911Y-65171917D01*
X78005977Y-65169918D01*
X78007740Y-65168975D01*
X78009338Y-65169863D01*
G37*
G36*
X80559338Y-65169863D02*
G01*
X80569433Y-65184970D01*
X80586481Y-65202016D01*
X80606529Y-65215410D01*
X80628803Y-65224635D01*
X80652453Y-65229339D01*
X80676559Y-65229338D01*
X80700209Y-65224632D01*
X80722483Y-65215405D01*
X80742530Y-65202009D01*
X80759576Y-65184961D01*
X80769661Y-65169867D01*
X80771455Y-65168982D01*
X80773118Y-65170093D01*
X80773088Y-65171921D01*
X80743979Y-65226380D01*
X80722695Y-65296541D01*
X80715500Y-65369594D01*
X80715500Y-65719406D01*
X80722695Y-65792458D01*
X80743978Y-65862619D01*
X80773088Y-65917080D01*
X80773022Y-65919079D01*
X80771259Y-65920022D01*
X80769661Y-65919134D01*
X80759572Y-65904035D01*
X80742525Y-65886988D01*
X80722478Y-65873593D01*
X80700204Y-65864367D01*
X80676554Y-65859662D01*
X80652448Y-65859662D01*
X80628797Y-65864366D01*
X80606524Y-65873592D01*
X80586476Y-65886987D01*
X80569429Y-65904034D01*
X80559339Y-65919134D01*
X80557545Y-65920019D01*
X80555882Y-65918908D01*
X80555912Y-65917080D01*
X80585022Y-65862620D01*
X80606305Y-65792459D01*
X80613500Y-65719406D01*
X80613500Y-65369594D01*
X80606305Y-65296541D01*
X80585022Y-65226380D01*
X80555911Y-65171917D01*
X80555977Y-65169918D01*
X80557740Y-65168975D01*
X80559338Y-65169863D01*
G37*
G36*
X78859338Y-65169863D02*
G01*
X78869433Y-65184970D01*
X78886481Y-65202016D01*
X78906529Y-65215410D01*
X78928803Y-65224635D01*
X78952453Y-65229339D01*
X78976559Y-65229338D01*
X79000209Y-65224632D01*
X79022483Y-65215405D01*
X79042530Y-65202009D01*
X79059576Y-65184961D01*
X79069661Y-65169867D01*
X79071455Y-65168982D01*
X79073118Y-65170093D01*
X79073088Y-65171921D01*
X79043979Y-65226380D01*
X79022695Y-65296541D01*
X79015500Y-65369594D01*
X79015500Y-65719406D01*
X79022695Y-65792458D01*
X79043978Y-65862619D01*
X79073088Y-65917080D01*
X79073022Y-65919079D01*
X79071259Y-65920022D01*
X79069661Y-65919134D01*
X79059572Y-65904035D01*
X79042525Y-65886988D01*
X79022478Y-65873593D01*
X79000204Y-65864367D01*
X78976554Y-65859662D01*
X78952448Y-65859662D01*
X78928797Y-65864366D01*
X78906524Y-65873592D01*
X78886476Y-65886987D01*
X78869429Y-65904034D01*
X78859339Y-65919134D01*
X78857545Y-65920019D01*
X78855882Y-65918908D01*
X78855912Y-65917080D01*
X78885022Y-65862620D01*
X78906305Y-65792459D01*
X78913500Y-65719406D01*
X78913500Y-65369594D01*
X78906305Y-65296541D01*
X78885022Y-65226380D01*
X78855911Y-65171917D01*
X78855977Y-65169918D01*
X78857740Y-65168975D01*
X78859338Y-65169863D01*
G37*
G36*
X79709338Y-65169863D02*
G01*
X79719433Y-65184970D01*
X79736481Y-65202016D01*
X79756529Y-65215410D01*
X79778803Y-65224635D01*
X79802453Y-65229339D01*
X79826559Y-65229338D01*
X79850209Y-65224632D01*
X79872483Y-65215405D01*
X79892530Y-65202009D01*
X79909576Y-65184961D01*
X79919661Y-65169867D01*
X79921455Y-65168982D01*
X79923118Y-65170093D01*
X79923088Y-65171921D01*
X79893979Y-65226380D01*
X79872695Y-65296541D01*
X79865500Y-65369594D01*
X79865500Y-65719406D01*
X79872695Y-65792458D01*
X79893978Y-65862619D01*
X79923088Y-65917080D01*
X79923022Y-65919079D01*
X79921259Y-65920022D01*
X79919661Y-65919134D01*
X79909572Y-65904035D01*
X79892525Y-65886988D01*
X79872478Y-65873593D01*
X79850204Y-65864367D01*
X79826554Y-65859662D01*
X79802448Y-65859662D01*
X79778797Y-65864366D01*
X79756524Y-65873592D01*
X79736476Y-65886987D01*
X79719429Y-65904034D01*
X79709339Y-65919134D01*
X79707545Y-65920019D01*
X79705882Y-65918908D01*
X79705912Y-65917080D01*
X79735022Y-65862620D01*
X79756305Y-65792459D01*
X79763500Y-65719406D01*
X79763500Y-65369594D01*
X79756305Y-65296541D01*
X79735022Y-65226380D01*
X79705911Y-65171917D01*
X79705977Y-65169918D01*
X79707740Y-65168975D01*
X79709338Y-65169863D01*
G37*
G36*
X81409338Y-65169863D02*
G01*
X81419433Y-65184970D01*
X81436481Y-65202016D01*
X81456529Y-65215410D01*
X81478803Y-65224635D01*
X81502453Y-65229339D01*
X81526559Y-65229338D01*
X81550209Y-65224632D01*
X81572483Y-65215405D01*
X81592530Y-65202009D01*
X81609576Y-65184961D01*
X81619661Y-65169867D01*
X81621455Y-65168982D01*
X81623118Y-65170093D01*
X81623088Y-65171921D01*
X81593979Y-65226380D01*
X81572695Y-65296541D01*
X81565500Y-65369594D01*
X81565500Y-65719406D01*
X81572695Y-65792458D01*
X81593978Y-65862619D01*
X81623088Y-65917080D01*
X81623022Y-65919079D01*
X81621259Y-65920022D01*
X81619661Y-65919134D01*
X81609572Y-65904035D01*
X81592525Y-65886988D01*
X81572478Y-65873593D01*
X81550204Y-65864367D01*
X81526554Y-65859662D01*
X81502448Y-65859662D01*
X81478797Y-65864366D01*
X81456524Y-65873592D01*
X81436476Y-65886987D01*
X81419429Y-65904034D01*
X81409339Y-65919134D01*
X81407545Y-65920019D01*
X81405882Y-65918908D01*
X81405912Y-65917080D01*
X81435022Y-65862620D01*
X81456305Y-65792459D01*
X81463500Y-65719406D01*
X81463500Y-65369594D01*
X81456305Y-65296541D01*
X81435022Y-65226380D01*
X81405911Y-65171917D01*
X81405977Y-65169918D01*
X81407740Y-65168975D01*
X81409338Y-65169863D01*
G37*
G36*
X82261837Y-65174539D02*
G01*
X82271931Y-65189645D01*
X82288978Y-65206692D01*
X82309026Y-65220086D01*
X82331300Y-65229312D01*
X82354950Y-65234016D01*
X82379056Y-65234016D01*
X82402706Y-65229311D01*
X82424980Y-65220084D01*
X82445027Y-65206689D01*
X82462074Y-65189642D01*
X82472158Y-65174550D01*
X82473952Y-65173665D01*
X82475615Y-65174776D01*
X82475585Y-65176604D01*
X82448979Y-65226380D01*
X82427695Y-65296541D01*
X82420500Y-65369594D01*
X82420500Y-65719406D01*
X82427695Y-65792458D01*
X82448978Y-65862619D01*
X82475589Y-65912406D01*
X82475523Y-65914405D01*
X82473760Y-65915348D01*
X82472162Y-65914460D01*
X82462072Y-65899358D01*
X82445025Y-65882311D01*
X82424977Y-65868916D01*
X82402703Y-65859689D01*
X82379053Y-65854985D01*
X82354947Y-65854985D01*
X82331297Y-65859689D01*
X82309023Y-65868916D01*
X82288976Y-65882310D01*
X82271929Y-65899357D01*
X82261838Y-65914460D01*
X82260044Y-65915345D01*
X82258381Y-65914234D01*
X82258411Y-65912406D01*
X82285022Y-65862620D01*
X82306305Y-65792459D01*
X82313500Y-65719406D01*
X82313500Y-65369594D01*
X82306305Y-65296541D01*
X82285022Y-65226380D01*
X82258410Y-65176593D01*
X82258476Y-65174594D01*
X82260239Y-65173651D01*
X82261837Y-65174539D01*
G37*
M02*
