M48
; DRILL file {KiCad 5.1.10-88a1d61d58~88~ubuntu21.04.1} date Wed Jul  7 15:16:47 2021
; FORMAT={-:-/ absolute / inch / decimal}
; #@! TF.CreationDate,2021-07-07T15:16:47+02:00
; #@! TF.GenerationSoftware,Kicad,Pcbnew,5.1.10-88a1d61d58~88~ubuntu21.04.1
FMAT,2
INCH
T1C0.0157
T2C0.0236
T3C0.0315
T4C0.0394
T5C0.0400
T6C0.0591
T7C0.0866
T8C0.0669
T9C0.1575
%
G90
G05
T1
X3.0252Y-2.583
X3.0254Y-2.6352
X3.0515Y-2.9315
X3.0586Y-2.583
X3.0588Y-2.6352
X3.0921Y-2.583
X3.0923Y-2.6352
X3.1256Y-2.583
X3.1258Y-2.6352
X3.142Y-3.205
X3.159Y-2.583
X3.1592Y-2.6352
X3.1925Y-2.583
X3.1927Y-2.6352
X3.1975Y-3.4025
X3.1987Y-3.0308
X3.21Y-3.07
X3.226Y-2.583
X3.2262Y-2.6352
X3.2596Y-2.583
X3.2596Y-2.6352
X3.2615Y-4.7975
X3.275Y-4.5825
X3.29Y-2.6775
X3.2959Y-4.7783
X3.3295Y-3.0035
X3.3385Y-3.2855
X3.3425Y-2.69
X3.4125Y-3.3325
X3.447Y-3.599
X3.4475Y-3.38
X3.4782Y-3.2538
X3.4925Y-3.5975
X3.5083Y-3.2278
X3.5418Y-3.1992
X3.5561Y-3.5014
X3.5583Y-3.5964
X3.57Y-3.4125
X3.5952Y-3.3823
X3.6025Y-3.565
X3.6073Y-4.1973
X3.6364Y-3.7176
X3.6697Y-3.5978
X3.695Y-3.66
X3.7125Y-3.335
X3.7534Y-3.6353
X3.7534Y-3.6775
X3.795Y-3.44
X4.0Y-3.4975
T3
X3.1425Y-3.485
X3.1425Y-3.6771
X3.145Y-4.4025
X3.145Y-4.5946
X3.82Y-2.4225
X3.82Y-2.7225
X3.92Y-2.4225
X3.92Y-2.7225
X4.02Y-2.4225
X4.02Y-2.7225
X4.3065Y-4.702
X4.3065Y-4.8941
T4
X4.1925Y-3.23
X4.1925Y-3.33
X4.1925Y-3.43
X4.1925Y-3.53
X4.1925Y-3.63
X4.2925Y-3.23
X4.2925Y-3.33
X4.2925Y-3.43
X4.2925Y-3.53
X4.2925Y-3.63
T5
X2.265Y-3.75
X2.265Y-3.85
X2.265Y-3.95
X2.265Y-4.05
X2.265Y-4.15
X2.265Y-4.25
X2.265Y-4.35
X2.265Y-4.45
X2.265Y-4.55
X2.265Y-4.65
X2.265Y-4.75
X2.265Y-4.85
X2.265Y-4.95
X2.265Y-5.05
X2.265Y-5.15
X2.265Y-5.25
X2.265Y-5.35
X2.265Y-5.45
X2.265Y-5.55
X2.265Y-5.65
X2.865Y-3.75
X2.865Y-3.85
X2.865Y-3.95
X2.865Y-4.05
X2.865Y-4.15
X2.865Y-4.25
X2.865Y-4.35
X2.865Y-4.45
X2.865Y-4.55
X2.865Y-4.65
X2.865Y-4.75
X2.865Y-4.85
X2.865Y-4.95
X2.865Y-5.05
X2.865Y-5.15
X2.865Y-5.25
X2.865Y-5.35
X2.865Y-5.45
X2.865Y-5.55
X2.865Y-5.65
X3.425Y-4.3498
X3.425Y-4.4498
X3.425Y-4.5498
X3.425Y-4.6498
X3.425Y-4.7498
X3.425Y-4.8498
X3.425Y-4.9498
X3.425Y-5.0498
X3.425Y-5.1498
X3.425Y-5.2498
X3.425Y-5.3498
X3.425Y-5.4498
X3.425Y-5.5498
X3.425Y-5.6498
X4.025Y-4.3498
X4.025Y-4.4498
X4.025Y-4.5498
X4.025Y-4.6498
X4.025Y-4.7498
X4.025Y-4.8498
X4.025Y-4.9498
X4.025Y-5.0498
X4.025Y-5.1498
X4.025Y-5.2498
X4.025Y-5.3498
X4.025Y-5.4498
X4.025Y-5.5498
X4.025Y-5.6498
T6
X2.5065Y-2.7675
X2.6065Y-3.0175
T7
X2.001Y-2.4576
X2.001Y-5.9419
X4.2845Y-2.4576
X4.2845Y-5.9419
T8
X2.4065Y-2.7175
X2.4065Y-3.1175
T9
X2.4065Y-2.9175
T2
G00X2.9722Y-2.4793
M15
G01X2.9722Y-2.4478
M16
G05
G00X2.9722Y-2.6261
M15
G01X2.9722Y-2.567
M16
G05
G00X3.3128Y-2.4793
M15
G01X3.3128Y-2.4478
M16
G05
G00X3.3128Y-2.6261
M15
G01X3.3128Y-2.567
M16
G05
T0
M30
