%TF.GenerationSoftware,KiCad,Pcbnew,5.1.10-88a1d61d58~88~ubuntu21.04.1*%
%TF.CreationDate,2021-07-07T15:16:20+02:00*%
%TF.ProjectId,USBaspDualZif-bottom,55534261-7370-4447-9561-6c5a69662d62,V1.0*%
%TF.SameCoordinates,Original*%
%TF.FileFunction,Copper,L2,Bot*%
%TF.FilePolarity,Positive*%
%FSLAX46Y46*%
G04 Gerber Fmt 4.6, Leading zero omitted, Abs format (unit mm)*
G04 Created by KiCad (PCBNEW 5.1.10-88a1d61d58~88~ubuntu21.04.1) date 2021-07-07 15:16:20*
%MOMM*%
%LPD*%
G01*
G04 APERTURE LIST*
%TA.AperFunction,Profile*%
%ADD10C,0.200000*%
%TD*%
%TA.AperFunction,ComponentPad*%
%ADD11C,4.400000*%
%TD*%
%TA.AperFunction,NonConductor*%
%ADD12C,0.254000*%
%TD*%
%TA.AperFunction,NonConductor*%
%ADD13C,0.150000*%
%TD*%
G04 APERTURE END LIST*
D10*
X48821500Y-58418500D02*
G75*
G03*
X46821500Y-60418500I0J-2000000D01*
G01*
X46821500Y-152917500D02*
G75*
G03*
X48821500Y-154917500I2000000J0D01*
G01*
X110823500Y-154916000D02*
G75*
G03*
X112823500Y-152916000I0J2000000D01*
G01*
X112823500Y-60420000D02*
G75*
G03*
X110823500Y-58420000I-2000000J0D01*
G01*
X46821500Y-152917500D02*
X46821500Y-60418500D01*
X110823500Y-154916000D02*
X48821500Y-154917500D01*
X112823500Y-60420000D02*
X112823500Y-152916000D01*
X48821500Y-58418500D02*
X110823500Y-58420000D01*
D11*
X108826000Y-150923500D03*
X50826000Y-150923500D03*
X108826000Y-62423500D03*
X50826000Y-62423500D03*
D12*
X110787535Y-59154998D02*
X111068521Y-59182549D01*
X111304212Y-59253708D01*
X111521589Y-59369291D01*
X111712379Y-59524895D01*
X111869311Y-59714593D01*
X111986406Y-59931157D01*
X112059209Y-60166344D01*
X112088500Y-60445028D01*
X112088501Y-152880043D01*
X112060951Y-153161021D01*
X111989791Y-153396712D01*
X111874211Y-153614088D01*
X111718604Y-153804879D01*
X111528908Y-153961811D01*
X111312343Y-154078906D01*
X111077156Y-154151709D01*
X110798458Y-154181001D01*
X48857439Y-154182499D01*
X48576479Y-154154951D01*
X48340788Y-154083791D01*
X48123412Y-153968211D01*
X47932621Y-153812604D01*
X47775689Y-153622908D01*
X47658594Y-153406343D01*
X47585791Y-153171156D01*
X47556500Y-152892472D01*
X47556500Y-150644277D01*
X47991000Y-150644277D01*
X47991000Y-151202723D01*
X48099948Y-151750439D01*
X48313656Y-152266376D01*
X48623912Y-152730707D01*
X49018793Y-153125588D01*
X49483124Y-153435844D01*
X49999061Y-153649552D01*
X50546777Y-153758500D01*
X51105223Y-153758500D01*
X51652939Y-153649552D01*
X52168876Y-153435844D01*
X52633207Y-153125588D01*
X53028088Y-152730707D01*
X53338344Y-152266376D01*
X53552052Y-151750439D01*
X53661000Y-151202723D01*
X53661000Y-150644277D01*
X105991000Y-150644277D01*
X105991000Y-151202723D01*
X106099948Y-151750439D01*
X106313656Y-152266376D01*
X106623912Y-152730707D01*
X107018793Y-153125588D01*
X107483124Y-153435844D01*
X107999061Y-153649552D01*
X108546777Y-153758500D01*
X109105223Y-153758500D01*
X109652939Y-153649552D01*
X110168876Y-153435844D01*
X110633207Y-153125588D01*
X111028088Y-152730707D01*
X111338344Y-152266376D01*
X111552052Y-151750439D01*
X111661000Y-151202723D01*
X111661000Y-150644277D01*
X111552052Y-150096561D01*
X111338344Y-149580624D01*
X111028088Y-149116293D01*
X110633207Y-148721412D01*
X110168876Y-148411156D01*
X109652939Y-148197448D01*
X109105223Y-148088500D01*
X108546777Y-148088500D01*
X107999061Y-148197448D01*
X107483124Y-148411156D01*
X107018793Y-148721412D01*
X106623912Y-149116293D01*
X106313656Y-149580624D01*
X106099948Y-150096561D01*
X105991000Y-150644277D01*
X53661000Y-150644277D01*
X53552052Y-150096561D01*
X53338344Y-149580624D01*
X53028088Y-149116293D01*
X52633207Y-148721412D01*
X52168876Y-148411156D01*
X51652939Y-148197448D01*
X51105223Y-148088500D01*
X50546777Y-148088500D01*
X49999061Y-148197448D01*
X49483124Y-148411156D01*
X49018793Y-148721412D01*
X48623912Y-149116293D01*
X48313656Y-149580624D01*
X48099948Y-150096561D01*
X47991000Y-150644277D01*
X47556500Y-150644277D01*
X47556500Y-62144277D01*
X47991000Y-62144277D01*
X47991000Y-62702723D01*
X48099948Y-63250439D01*
X48313656Y-63766376D01*
X48623912Y-64230707D01*
X49018793Y-64625588D01*
X49483124Y-64935844D01*
X49999061Y-65149552D01*
X50546777Y-65258500D01*
X51105223Y-65258500D01*
X51652939Y-65149552D01*
X52168876Y-64935844D01*
X52633207Y-64625588D01*
X53028088Y-64230707D01*
X53338344Y-63766376D01*
X53552052Y-63250439D01*
X53661000Y-62702723D01*
X53661000Y-62144277D01*
X105991000Y-62144277D01*
X105991000Y-62702723D01*
X106099948Y-63250439D01*
X106313656Y-63766376D01*
X106623912Y-64230707D01*
X107018793Y-64625588D01*
X107483124Y-64935844D01*
X107999061Y-65149552D01*
X108546777Y-65258500D01*
X109105223Y-65258500D01*
X109652939Y-65149552D01*
X110168876Y-64935844D01*
X110633207Y-64625588D01*
X111028088Y-64230707D01*
X111338344Y-63766376D01*
X111552052Y-63250439D01*
X111661000Y-62702723D01*
X111661000Y-62144277D01*
X111552052Y-61596561D01*
X111338344Y-61080624D01*
X111028088Y-60616293D01*
X110633207Y-60221412D01*
X110168876Y-59911156D01*
X109652939Y-59697448D01*
X109105223Y-59588500D01*
X108546777Y-59588500D01*
X107999061Y-59697448D01*
X107483124Y-59911156D01*
X107018793Y-60221412D01*
X106623912Y-60616293D01*
X106313656Y-61080624D01*
X106099948Y-61596561D01*
X105991000Y-62144277D01*
X53661000Y-62144277D01*
X53552052Y-61596561D01*
X53338344Y-61080624D01*
X53028088Y-60616293D01*
X52633207Y-60221412D01*
X52168876Y-59911156D01*
X51652939Y-59697448D01*
X51105223Y-59588500D01*
X50546777Y-59588500D01*
X49999061Y-59697448D01*
X49483124Y-59911156D01*
X49018793Y-60221412D01*
X48623912Y-60616293D01*
X48313656Y-61080624D01*
X48099948Y-61596561D01*
X47991000Y-62144277D01*
X47556500Y-62144277D01*
X47556500Y-60454447D01*
X47584049Y-60173479D01*
X47655208Y-59937788D01*
X47770791Y-59720411D01*
X47926395Y-59529621D01*
X48116093Y-59372689D01*
X48332657Y-59255594D01*
X48567844Y-59182791D01*
X48846523Y-59153500D01*
X110787535Y-59154998D01*
%TA.AperFunction,NonConductor*%
D13*
G36*
X110787535Y-59154998D02*
G01*
X111068521Y-59182549D01*
X111304212Y-59253708D01*
X111521589Y-59369291D01*
X111712379Y-59524895D01*
X111869311Y-59714593D01*
X111986406Y-59931157D01*
X112059209Y-60166344D01*
X112088500Y-60445028D01*
X112088501Y-152880043D01*
X112060951Y-153161021D01*
X111989791Y-153396712D01*
X111874211Y-153614088D01*
X111718604Y-153804879D01*
X111528908Y-153961811D01*
X111312343Y-154078906D01*
X111077156Y-154151709D01*
X110798458Y-154181001D01*
X48857439Y-154182499D01*
X48576479Y-154154951D01*
X48340788Y-154083791D01*
X48123412Y-153968211D01*
X47932621Y-153812604D01*
X47775689Y-153622908D01*
X47658594Y-153406343D01*
X47585791Y-153171156D01*
X47556500Y-152892472D01*
X47556500Y-150644277D01*
X47991000Y-150644277D01*
X47991000Y-151202723D01*
X48099948Y-151750439D01*
X48313656Y-152266376D01*
X48623912Y-152730707D01*
X49018793Y-153125588D01*
X49483124Y-153435844D01*
X49999061Y-153649552D01*
X50546777Y-153758500D01*
X51105223Y-153758500D01*
X51652939Y-153649552D01*
X52168876Y-153435844D01*
X52633207Y-153125588D01*
X53028088Y-152730707D01*
X53338344Y-152266376D01*
X53552052Y-151750439D01*
X53661000Y-151202723D01*
X53661000Y-150644277D01*
X105991000Y-150644277D01*
X105991000Y-151202723D01*
X106099948Y-151750439D01*
X106313656Y-152266376D01*
X106623912Y-152730707D01*
X107018793Y-153125588D01*
X107483124Y-153435844D01*
X107999061Y-153649552D01*
X108546777Y-153758500D01*
X109105223Y-153758500D01*
X109652939Y-153649552D01*
X110168876Y-153435844D01*
X110633207Y-153125588D01*
X111028088Y-152730707D01*
X111338344Y-152266376D01*
X111552052Y-151750439D01*
X111661000Y-151202723D01*
X111661000Y-150644277D01*
X111552052Y-150096561D01*
X111338344Y-149580624D01*
X111028088Y-149116293D01*
X110633207Y-148721412D01*
X110168876Y-148411156D01*
X109652939Y-148197448D01*
X109105223Y-148088500D01*
X108546777Y-148088500D01*
X107999061Y-148197448D01*
X107483124Y-148411156D01*
X107018793Y-148721412D01*
X106623912Y-149116293D01*
X106313656Y-149580624D01*
X106099948Y-150096561D01*
X105991000Y-150644277D01*
X53661000Y-150644277D01*
X53552052Y-150096561D01*
X53338344Y-149580624D01*
X53028088Y-149116293D01*
X52633207Y-148721412D01*
X52168876Y-148411156D01*
X51652939Y-148197448D01*
X51105223Y-148088500D01*
X50546777Y-148088500D01*
X49999061Y-148197448D01*
X49483124Y-148411156D01*
X49018793Y-148721412D01*
X48623912Y-149116293D01*
X48313656Y-149580624D01*
X48099948Y-150096561D01*
X47991000Y-150644277D01*
X47556500Y-150644277D01*
X47556500Y-62144277D01*
X47991000Y-62144277D01*
X47991000Y-62702723D01*
X48099948Y-63250439D01*
X48313656Y-63766376D01*
X48623912Y-64230707D01*
X49018793Y-64625588D01*
X49483124Y-64935844D01*
X49999061Y-65149552D01*
X50546777Y-65258500D01*
X51105223Y-65258500D01*
X51652939Y-65149552D01*
X52168876Y-64935844D01*
X52633207Y-64625588D01*
X53028088Y-64230707D01*
X53338344Y-63766376D01*
X53552052Y-63250439D01*
X53661000Y-62702723D01*
X53661000Y-62144277D01*
X105991000Y-62144277D01*
X105991000Y-62702723D01*
X106099948Y-63250439D01*
X106313656Y-63766376D01*
X106623912Y-64230707D01*
X107018793Y-64625588D01*
X107483124Y-64935844D01*
X107999061Y-65149552D01*
X108546777Y-65258500D01*
X109105223Y-65258500D01*
X109652939Y-65149552D01*
X110168876Y-64935844D01*
X110633207Y-64625588D01*
X111028088Y-64230707D01*
X111338344Y-63766376D01*
X111552052Y-63250439D01*
X111661000Y-62702723D01*
X111661000Y-62144277D01*
X111552052Y-61596561D01*
X111338344Y-61080624D01*
X111028088Y-60616293D01*
X110633207Y-60221412D01*
X110168876Y-59911156D01*
X109652939Y-59697448D01*
X109105223Y-59588500D01*
X108546777Y-59588500D01*
X107999061Y-59697448D01*
X107483124Y-59911156D01*
X107018793Y-60221412D01*
X106623912Y-60616293D01*
X106313656Y-61080624D01*
X106099948Y-61596561D01*
X105991000Y-62144277D01*
X53661000Y-62144277D01*
X53552052Y-61596561D01*
X53338344Y-61080624D01*
X53028088Y-60616293D01*
X52633207Y-60221412D01*
X52168876Y-59911156D01*
X51652939Y-59697448D01*
X51105223Y-59588500D01*
X50546777Y-59588500D01*
X49999061Y-59697448D01*
X49483124Y-59911156D01*
X49018793Y-60221412D01*
X48623912Y-60616293D01*
X48313656Y-61080624D01*
X48099948Y-61596561D01*
X47991000Y-62144277D01*
X47556500Y-62144277D01*
X47556500Y-60454447D01*
X47584049Y-60173479D01*
X47655208Y-59937788D01*
X47770791Y-59720411D01*
X47926395Y-59529621D01*
X48116093Y-59372689D01*
X48332657Y-59255594D01*
X48567844Y-59182791D01*
X48846523Y-59153500D01*
X110787535Y-59154998D01*
G37*
%TD.AperFunction*%
M02*
